<svg width="816" height="979" viewBox="0 0 816 979" fill="none" xmlns="http://www.w3.org/2000/svg">
<g opacity="0.2" clip-path="url(#clip0_19_2)">
<path d="M200.983 108.031C200.983 108.031 323.87 -64.4448 474.436 86.4906C625.002 237.426 807.58 154.849 807.58 154.849" stroke="url(#paint0_linear_19_2)" stroke-width="0.75" stroke-miterlimit="10"/>
<path d="M199.007 115.887C199.007 115.887 321.681 -57.4813 471.116 94.3977C620.343 244.883 802.865 162.04 802.865 162.04" stroke="url(#paint1_linear_19_2)" stroke-width="0.75" stroke-miterlimit="10"/>
<path d="M197.04 123.633C197.04 123.633 318.897 -49.9383 467.787 102.294C615.09 252.909 798.116 169.147 798.116 169.147" stroke="url(#paint2_linear_19_2)" stroke-width="0.75" stroke-miterlimit="10"/>
<path d="M195.068 131.429C195.068 131.429 316.4 -42.6908 464.467 110.201C610.135 260.631 793.363 176.294 793.363 176.294" stroke="url(#paint3_linear_19_2)" stroke-width="0.75" stroke-miterlimit="10"/>
<path d="M193.097 139.225C193.097 139.225 313.915 -35.4525 461.137 118.107C605.191 268.353 788.632 183.433 788.632 183.433" stroke="url(#paint4_linear_19_2)" stroke-width="0.75" stroke-miterlimit="10"/>
<path d="M191.124 147.031C191.124 147.031 311.389 -28.2177 457.817 126.014C600.219 276.043 783.86 190.579 783.86 190.579" stroke="url(#paint5_linear_19_2)" stroke-width="0.75" stroke-miterlimit="10"/>
<path d="M189.153 154.827C189.153 154.827 308.925 -20.9875 454.487 133.92C595.304 283.778 779.107 197.726 779.107 197.726" stroke="url(#paint6_linear_19_2)" stroke-width="0.75" stroke-miterlimit="10"/>
<path d="M187.181 162.623C187.181 162.623 306.441 -13.7691 451.167 141.828C590.362 291.471 774.355 204.873 774.355 204.873" stroke="url(#paint7_linear_19_2)" stroke-width="0.75" stroke-miterlimit="10"/>
<path d="M185.21 170.419C185.21 170.419 303.947 -6.55161 447.837 149.724C585.43 299.165 769.603 212.021 769.603 212.021" stroke="url(#paint8_linear_19_2)" stroke-width="0.75" stroke-miterlimit="10"/>
<path d="M183.239 178.216C183.239 178.216 301.454 0.655965 444.517 157.631C580.5 306.848 764.851 219.158 764.851 219.158" stroke="url(#paint9_linear_19_2)" stroke-width="0.75" stroke-miterlimit="10"/>
<path d="M181.276 186.022C181.276 186.022 298.932 7.85092 441.188 165.527C575.58 314.513 760.1 226.295 760.1 226.295" stroke="url(#paint10_linear_19_2)" stroke-width="0.75" stroke-miterlimit="10"/>
<path d="M179.305 193.819C179.305 193.819 296.46 15.0503 437.867 173.444C570.66 322.187 755.346 233.452 755.346 233.452" stroke="url(#paint11_linear_19_2)" stroke-width="0.75" stroke-miterlimit="10"/>
<path d="M177.333 201.615C177.333 201.615 293.939 22.2353 434.551 181.311C565.746 329.802 750.6 240.53 750.6 240.53" stroke="url(#paint12_linear_19_2)" stroke-width="0.75" stroke-miterlimit="10"/>
<path d="M175.322 209.407C175.322 209.407 291.438 29.422 431.177 189.254C560.784 337.493 745.803 247.733 745.803 247.733" stroke="url(#paint13_linear_19_2)" stroke-width="0.75" stroke-miterlimit="10"/>
<path d="M173.39 217.217C173.39 217.217 288.988 36.6033 427.898 197.154C555.917 345.132 741.1 254.885 741.1 254.885" stroke="url(#paint14_linear_19_2)" stroke-width="0.75" stroke-miterlimit="10"/>
<path d="M171.418 225.013C171.418 225.013 286.498 43.771 424.568 205.061C551.021 352.768 736.347 262.042 736.347 262.042" stroke="url(#paint15_linear_19_2)" stroke-width="0.75" stroke-miterlimit="10"/>
<path d="M169.447 232.809C169.447 232.809 284.029 50.9405 421.25 212.948C546.117 360.374 731.597 269.16 731.597 269.16" stroke="url(#paint16_linear_19_2)" stroke-width="0.75" stroke-miterlimit="10"/>
<path d="M167.517 240.588C167.517 240.588 281.521 58.0965 417.898 220.872C541.201 368.008 726.824 276.315 726.824 276.315" stroke="url(#paint17_linear_19_2)" stroke-width="0.75" stroke-miterlimit="10"/>
<path d="M165.5 248.441C165.5 248.441 279.029 65.2941 414.594 228.821C536.336 375.628 722.092 283.464 722.092 283.464" stroke="url(#paint18_linear_19_2)" stroke-width="0.75" stroke-miterlimit="10"/>
<path d="M163.532 256.207C163.532 256.207 276.506 72.3886 411.269 236.677C531.453 383.225 717.34 290.611 717.34 290.611" stroke="url(#paint19_linear_19_2)" stroke-width="0.75" stroke-miterlimit="10"/>
<path d="M161.57 264.004C161.57 264.004 274.059 79.53 407.949 244.584C526.57 390.823 712.586 297.769 712.586 297.769" stroke="url(#paint20_linear_19_2)" stroke-width="0.75" stroke-miterlimit="10"/>
<path d="M159.599 271.8C159.599 271.8 271.572 86.6678 404.619 252.49C521.696 398.431 707.836 304.896 707.836 304.896" stroke="url(#paint21_linear_19_2)" stroke-width="0.75" stroke-miterlimit="10"/>
<path d="M157.627 279.596C157.627 279.596 269.087 93.7857 401.301 260.368C516.839 405.96 703.086 312.013 703.086 312.013" stroke="url(#paint22_linear_19_2)" stroke-width="0.75" stroke-miterlimit="10"/>
<path d="M155.656 287.392C155.656 287.392 266.612 100.905 397.978 268.305C511.966 413.569 698.331 319.19 698.331 319.19" stroke="url(#paint23_linear_19_2)" stroke-width="0.75" stroke-miterlimit="10"/>
<path d="M153.684 295.198C153.684 295.198 264.137 108.023 394.648 276.211C507.116 421.129 693.579 326.338 693.579 326.338" stroke="url(#paint24_linear_19_2)" stroke-width="0.75" stroke-miterlimit="10"/>
<path d="M151.712 302.994C151.712 302.994 261.654 115.121 391.327 284.138C502.284 428.721 688.824 333.515 688.824 333.515" stroke="url(#paint25_linear_19_2)" stroke-width="0.75" stroke-miterlimit="10"/>
<path d="M149.741 310.79C149.741 310.79 259.181 122.22 387.959 292.01C497.398 436.238 684.065 340.621 684.065 340.621" stroke="url(#paint26_linear_19_2)" stroke-width="0.75" stroke-miterlimit="10"/>
<path d="M147.769 318.586C147.769 318.586 256.719 129.31 384.699 299.923C492.59 443.782 679.342 347.771 679.342 347.771" stroke="url(#paint27_linear_19_2)" stroke-width="0.75" stroke-miterlimit="10"/>
<path d="M145.798 326.382C145.798 326.382 254.287 136.403 381.353 307.787C487.744 451.312 674.568 354.937 674.568 354.937" stroke="url(#paint28_linear_19_2)" stroke-width="0.75" stroke-miterlimit="10"/>
<path d="M143.826 334.188C143.826 334.188 251.785 143.479 377.989 315.731C482.877 458.841 669.808 362.063 669.808 362.063" stroke="url(#paint29_linear_19_2)" stroke-width="0.75" stroke-miterlimit="10"/>
<path d="M141.854 341.984C141.854 341.984 249.325 150.549 374.699 323.641C478.092 466.357 665.066 369.201 665.066 369.201" stroke="url(#paint30_linear_19_2)" stroke-width="0.75" stroke-miterlimit="10"/>
<path d="M139.893 349.781C139.893 349.781 246.865 157.609 371.38 331.538C473.276 473.88 660.318 376.299 660.318 376.299" stroke="url(#paint31_linear_19_2)" stroke-width="0.75" stroke-miterlimit="10"/>
<path d="M137.921 357.577C137.921 357.577 244.416 164.67 368.03 339.442C468.442 481.381 655.552 383.495 655.552 383.495" stroke="url(#paint32_linear_19_2)" stroke-width="0.75" stroke-miterlimit="10"/>
<path d="M135.949 365.383C135.949 365.383 241.967 171.72 364.73 347.351C463.657 488.887 650.779 390.641 650.779 390.641" stroke="url(#paint33_linear_19_2)" stroke-width="0.75" stroke-miterlimit="10"/>
<path d="M133.981 373.14C133.981 373.14 239.533 178.722 361.414 355.208C458.833 496.389 646.068 397.781 646.068 397.781" stroke="url(#paint34_linear_19_2)" stroke-width="0.75" stroke-miterlimit="10"/>
<path d="M132.004 380.995C132.004 380.995 237.079 185.823 358.058 363.182C454.05 503.885 641.294 404.947 641.294 404.947" stroke="url(#paint35_linear_19_2)" stroke-width="0.75" stroke-miterlimit="10"/>
<path d="M130.035 388.771C130.035 388.771 234.654 192.836 354.76 371.061C449.29 511.343 636.563 412.076 636.563 412.076" stroke="url(#paint36_linear_19_2)" stroke-width="0.75" stroke-miterlimit="10"/>
<path d="M128.063 396.568C128.063 396.568 232.218 199.858 351.43 378.967C444.508 518.819 631.781 419.22 631.781 419.22" stroke="url(#paint37_linear_19_2)" stroke-width="0.75" stroke-miterlimit="10"/>
<path d="M126.091 404.374C126.091 404.374 229.793 206.87 348.09 386.873C439.718 526.284 627.039 426.359 627.039 426.359" stroke="url(#paint38_linear_19_2)" stroke-width="0.75" stroke-miterlimit="10"/>
<path d="M124.08 412.166C124.08 412.166 227.338 213.881 344.74 394.777C434.928 533.739 622.267 433.504 622.267 433.504" stroke="url(#paint39_linear_19_2)" stroke-width="0.75" stroke-miterlimit="10"/>
<path d="M122.148 419.966C122.148 419.966 224.963 220.888 341.46 402.688C430.218 541.201 617.555 440.655 617.555 440.655" stroke="url(#paint40_linear_19_2)" stroke-width="0.75" stroke-miterlimit="10"/>
<path d="M120.177 427.762C120.177 427.762 222.56 227.883 338.12 410.593C425.46 548.639 612.8 447.832 612.8 447.832" stroke="url(#paint41_linear_19_2)" stroke-width="0.75" stroke-miterlimit="10"/>
<path d="M118.215 435.559C118.215 435.559 220.156 234.877 334.811 418.491C420.721 556.089 608.051 454.94 608.051 454.94" stroke="url(#paint42_linear_19_2)" stroke-width="0.75" stroke-miterlimit="10"/>
<path d="M116.273 443.367C116.273 443.367 217.794 241.855 331.514 426.36C415.984 563.519 603.302 462.047 603.302 462.047" stroke="url(#paint43_linear_19_2)" stroke-width="0.75" stroke-miterlimit="10"/>
<path d="M114.271 451.161C114.271 451.161 215.383 248.829 328.161 434.304C411.257 570.949 598.546 469.234 598.546 469.234" stroke="url(#paint44_linear_19_2)" stroke-width="0.75" stroke-miterlimit="10"/>
<path d="M112.3 458.957C112.3 458.957 213.001 255.806 324.841 442.211C406.53 578.38 593.794 476.381 593.794 476.381" stroke="url(#paint45_linear_19_2)" stroke-width="0.75" stroke-miterlimit="10"/>
<path d="M110.329 466.753C110.329 466.753 210.631 262.763 321.511 450.118C401.817 585.761 589.042 483.529 589.042 483.529" stroke="url(#paint46_linear_19_2)" stroke-width="0.75" stroke-miterlimit="10"/>
<path d="M108.357 474.549C108.357 474.549 208.271 269.722 318.187 458.064C397.104 593.254 584.282 490.755 584.282 490.755" stroke="url(#paint47_linear_19_2)" stroke-width="0.75" stroke-miterlimit="10"/>
<path d="M106.385 482.355C106.385 482.355 205.912 276.67 314.861 465.921C392.403 600.616 579.498 497.81 579.498 497.81" stroke="url(#paint48_linear_19_2)" stroke-width="0.75" stroke-miterlimit="10"/>
<path d="M104.413 490.151C104.413 490.151 203.563 283.619 311.541 473.828C387.709 608.02 574.835 504.965 574.835 504.965" stroke="url(#paint49_linear_19_2)" stroke-width="0.75" stroke-miterlimit="10"/>
<path d="M102.442 497.947C102.442 497.947 201.225 290.55 308.221 481.735C383.035 615.415 570.053 512.109 570.053 512.109" stroke="url(#paint50_linear_19_2)" stroke-width="0.75" stroke-miterlimit="10"/>
<path d="M100.471 505.743C100.471 505.743 198.898 297.481 304.891 489.641C378.341 622.808 565.292 519.246 565.292 519.246" stroke="url(#paint51_linear_19_2)" stroke-width="0.75" stroke-miterlimit="10"/>
<path d="M98.4983 513.549C98.4983 513.549 196.611 304.415 301.561 497.547C373.668 630.193 560.539 526.393 560.539 526.393" stroke="url(#paint52_linear_19_2)" stroke-width="0.75" stroke-miterlimit="10"/>
<path d="M96.5368 521.346C96.5368 521.346 194.275 311.326 298.262 505.446C369.056 637.584 555.807 533.542 555.807 533.542" stroke="url(#paint53_linear_19_2)" stroke-width="0.75" stroke-miterlimit="10"/>
<path d="M94.5554 529.141C94.5554 529.141 191.959 318.238 294.902 513.35C364.354 644.957 551.031 540.727 551.031 540.727" stroke="url(#paint54_linear_19_2)" stroke-width="0.75" stroke-miterlimit="10"/>
<path d="M92.5939 536.938C92.5939 536.938 189.685 325.143 291.592 521.258C359.702 652.324 546.283 547.825 546.283 547.825" stroke="url(#paint55_linear_19_2)" stroke-width="0.75" stroke-miterlimit="10"/>
<path d="M90.6225 544.734C90.6225 544.734 187.4 332.048 288.291 529.177C355.06 659.702 541.533 554.942 541.533 554.942" stroke="url(#paint56_linear_19_2)" stroke-width="0.75" stroke-miterlimit="10"/>
<path d="M88.6502 552.54C88.6502 552.54 185.147 338.936 284.942 537.071C350.42 667.06 536.778 562.119 536.778 562.119" stroke="url(#paint57_linear_19_2)" stroke-width="0.75" stroke-miterlimit="10"/>
<path d="M86.6788 560.336C86.6788 560.336 182.884 345.823 281.622 544.978C345.8 674.42 532.028 569.247 532.028 569.247" stroke="url(#paint58_linear_19_2)" stroke-width="0.75" stroke-miterlimit="10"/>
<path d="M84.7074 568.132C84.7074 568.132 180.641 352.711 278.322 552.877C341.21 681.782 527.305 576.407 527.305 576.407" stroke="url(#paint59_linear_19_2)" stroke-width="0.75" stroke-miterlimit="10"/>
<path d="M82.7359 575.928C82.7359 575.928 178.412 359.55 274.972 560.781C336.57 689.14 522.522 583.551 522.522 583.551" stroke="url(#paint60_linear_19_2)" stroke-width="0.75" stroke-miterlimit="10"/>
<path d="M80.7645 583.724C80.7645 583.724 176.197 366.462 271.642 568.688C331.967 696.531 517.77 590.698 517.77 590.698" stroke="url(#paint61_linear_19_2)" stroke-width="0.75" stroke-miterlimit="10"/>
<path d="M78.7922 591.53C78.7922 591.53 173.987 373.323 268.352 576.597C327.402 703.836 513.078 597.851 513.078 597.851" stroke="url(#paint62_linear_19_2)" stroke-width="0.75" stroke-miterlimit="10"/>
<path d="M76.8208 599.327C76.8208 599.327 171.796 380.186 264.992 584.501C322.782 711.186 508.265 604.993 508.265 604.993" stroke="url(#paint63_linear_19_2)" stroke-width="0.75" stroke-miterlimit="10"/>
<path d="M74.8593 607.123C74.8593 607.123 169.597 387.038 261.673 592.398C318.205 718.519 503.514 612.13 503.514 612.13" stroke="url(#paint64_linear_19_2)" stroke-width="0.75" stroke-miterlimit="10"/>
<path d="M72.8879 614.92C72.8879 614.92 167.458 393.885 258.395 600.289C313.668 725.846 498.813 619.262 498.813 619.262" stroke="url(#paint65_linear_19_2)" stroke-width="0.75" stroke-miterlimit="10"/>
<path d="M70.9165 622.716C70.9165 622.716 165.359 400.736 255.023 608.211C309.068 733.198 493.978 626.442 493.978 626.442" stroke="url(#paint66_linear_19_2)" stroke-width="0.75" stroke-miterlimit="10"/>
<path d="M68.9441 630.522C68.9441 630.522 163.181 407.57 251.703 616.118C304.511 740.533 489.252 633.622 489.252 633.622" stroke="url(#paint67_linear_19_2)" stroke-width="0.75" stroke-miterlimit="10"/>
<path d="M66.9727 638.318C66.9727 638.318 161.064 414.41 248.423 624.029C300.013 747.874 484.555 640.714 484.555 640.714" stroke="url(#paint68_linear_19_2)" stroke-width="0.75" stroke-miterlimit="10"/>
<path d="M65.0321 646.106C65.0321 646.106 158.987 421.233 245.084 631.924C295.416 755.195 479.765 647.838 479.765 647.838" stroke="url(#paint69_linear_19_2)" stroke-width="0.75" stroke-miterlimit="10"/>
<path d="M63.0254 653.96C63.0254 653.96 156.89 428.064 241.744 639.829C290.909 762.525 475.031 655.007 475.031 655.007" stroke="url(#paint70_linear_19_2)" stroke-width="0.75" stroke-miterlimit="10"/>
<path d="M61.0575 661.716C61.0575 661.716 154.804 434.886 238.453 647.739C286.363 769.851 470.268 662.153 470.268 662.153" stroke="url(#paint71_linear_19_2)" stroke-width="0.75" stroke-miterlimit="10"/>
<path d="M59.0861 669.512C59.0861 669.512 152.758 441.712 235.073 655.641C281.846 777.18 465.507 669.289 465.507 669.289" stroke="url(#paint72_linear_19_2)" stroke-width="0.75" stroke-miterlimit="10"/>
<path d="M57.1147 677.308C57.1147 677.308 150.723 448.528 231.753 663.548C277.369 784.512 460.755 676.437 460.755 676.437" stroke="url(#paint73_linear_19_2)" stroke-width="0.75" stroke-miterlimit="10"/>
<path d="M55.1432 685.104C55.1432 685.104 148.708 455.336 228.423 671.454C272.83 791.859 456.002 683.584 456.002 683.584" stroke="url(#paint74_linear_19_2)" stroke-width="0.75" stroke-miterlimit="10"/>
<path d="M53.1818 692.901C53.1818 692.901 146.714 462.147 225.139 679.415C268.372 799.213 451.285 690.784 451.285 690.784" stroke="url(#paint75_linear_19_2)" stroke-width="0.75" stroke-miterlimit="10"/>
<path d="M51.2095 700.707C51.2095 700.707 144.73 468.948 221.774 687.258C263.853 806.452 446.498 697.868 446.498 697.868" stroke="url(#paint76_linear_19_2)" stroke-width="0.75" stroke-miterlimit="10"/>
<path d="M49.2381 708.503C49.2381 708.503 142.776 475.751 218.454 695.165C259.374 813.804 441.75 704.976 441.75 704.976" stroke="url(#paint77_linear_19_2)" stroke-width="0.75" stroke-miterlimit="10"/>
<path d="M47.2666 716.299C47.2666 716.299 140.843 482.557 215.13 703.111C254.905 821.167 436.99 712.203 436.99 712.203" stroke="url(#paint78_linear_19_2)" stroke-width="0.75" stroke-miterlimit="10"/>
<path d="M45.2952 724.095C45.2952 724.095 138.92 489.353 211.804 710.978C250.442 828.451 432.241 719.31 432.241 719.31" stroke="url(#paint79_linear_19_2)" stroke-width="0.75" stroke-miterlimit="10"/>
<path d="M43.3138 731.89C43.3138 731.89 137.017 496.152 208.474 718.884C245.976 835.774 427.479 726.457 427.479 726.457" stroke="url(#paint80_linear_19_2)" stroke-width="0.75" stroke-miterlimit="10"/>
<path d="M41.3515 739.697C41.3515 739.697 135.135 502.942 205.15 726.831C241.535 843.16 422.733 733.645 422.733 733.645" stroke="url(#paint81_linear_19_2)" stroke-width="0.75" stroke-miterlimit="10"/>
<path d="M39.38 747.493C39.38 747.493 133.293 509.735 201.835 734.688C237.113 850.437 417.986 740.732 417.986 740.732" stroke="url(#paint82_linear_19_2)" stroke-width="0.75" stroke-miterlimit="10"/>
<path d="M37.4086 755.289C37.4086 755.289 131.461 516.53 198.505 742.594C232.665 857.782 413.233 747.889 413.233 747.889" stroke="url(#paint83_linear_19_2)" stroke-width="0.75" stroke-miterlimit="10"/>
<path d="M35.4371 763.085C35.4371 763.085 129.647 523.346 195.184 750.501C228.281 865.092 408.481 755.037 408.481 755.037" stroke="url(#paint84_linear_19_2)" stroke-width="0.75" stroke-miterlimit="10"/>
<path d="M33.4757 770.882C33.4757 770.882 127.868 530.105 191.854 758.408C223.824 872.426 403.728 762.184 403.728 762.184" stroke="url(#paint85_linear_19_2)" stroke-width="0.75" stroke-miterlimit="10"/>
<path d="M31.5061 778.658C31.5061 778.658 126.077 536.893 188.534 766.315C219.408 879.754 398.977 769.321 398.977 769.321" stroke="url(#paint86_linear_19_2)" stroke-width="0.75" stroke-miterlimit="10"/>
<path d="M29.5293 786.514C29.5293 786.514 124.356 543.687 185.202 774.251C214.997 887.133 394.231 776.509 394.231 776.509" stroke="url(#paint87_linear_19_2)" stroke-width="0.75" stroke-miterlimit="10"/>
<path d="M27.5605 794.28C27.5605 794.28 122.645 550.482 181.885 782.118C210.614 894.433 389.482 783.616 389.482 783.616" stroke="url(#paint88_linear_19_2)" stroke-width="0.75" stroke-miterlimit="10"/>
<path d="M25.5891 802.076C25.5891 802.076 120.954 557.269 178.565 790.025C206.217 901.773 384.731 790.754 384.731 790.754" stroke="url(#paint89_linear_19_2)" stroke-width="0.75" stroke-miterlimit="10"/>
<path d="M23.6168 809.882C23.6168 809.882 119.283 564.068 175.235 797.931C201.839 909.124 379.978 797.901 379.978 797.901" stroke="url(#paint90_linear_19_2)" stroke-width="0.75" stroke-miterlimit="10"/>
<path d="M21.6454 817.679C21.6454 817.679 117.642 570.859 171.915 805.838C197.461 916.475 375.226 805.048 375.226 805.048" stroke="url(#paint91_linear_19_2)" stroke-width="0.75" stroke-miterlimit="10"/>
<path d="M19.6739 825.475C19.6739 825.475 116.031 577.663 168.585 813.744C193.093 923.827 370.474 812.196 370.474 812.196" stroke="url(#paint92_linear_19_2)" stroke-width="0.75" stroke-miterlimit="10"/>
<path d="M17.7025 833.271C17.7025 833.271 114.44 584.459 165.263 821.672C188.735 931.18 365.702 819.331 365.702 819.331" stroke="url(#paint93_linear_19_2)" stroke-width="0.75" stroke-miterlimit="10"/>
<path d="M15.7311 841.067C15.7311 841.067 112.869 591.267 161.936 829.548C184.377 938.543 360.97 826.48 360.97 826.48" stroke="url(#paint94_linear_19_2)" stroke-width="0.75" stroke-miterlimit="10"/>
<path d="M13.7887 848.875C13.7887 848.875 111.367 598.081 158.646 837.458C180.068 945.91 356.278 833.633 356.278 833.633" stroke="url(#paint95_linear_19_2)" stroke-width="0.75" stroke-miterlimit="10"/>
<path d="M11.7973 856.67C11.7973 856.67 109.825 604.891 155.288 845.331C175.692 953.242 351.468 840.745 351.468 840.745" stroke="url(#paint96_linear_19_2)" stroke-width="0.75" stroke-miterlimit="10"/>
<path d="M9.82587 864.466C9.82587 864.466 108.354 611.707 151.966 853.268C171.359 960.647 346.713 847.922 346.713 847.922" stroke="url(#paint97_linear_19_2)" stroke-width="0.75" stroke-miterlimit="10"/>
<path d="M7.85443 872.262C7.85443 872.262 106.912 618.527 148.646 861.165C167.029 968.033 341.961 855.059 341.961 855.059" stroke="url(#paint98_linear_19_2)" stroke-width="0.75" stroke-miterlimit="10"/>
<path d="M5.88301 880.058C5.88301 880.058 105.46 625.355 145.315 869.091C162.706 975.439 337.177 862.224 337.177 862.224" stroke="url(#paint99_linear_19_2)" stroke-width="0.75" stroke-miterlimit="10"/>
<path d="M3.91074 887.864C3.91074 887.864 104.057 632.187 141.996 876.978C158.394 982.846 332.457 869.354 332.457 869.354" stroke="url(#paint100_linear_19_2)" stroke-width="0.75" stroke-miterlimit="10"/>
<path d="M1.9393 895.66C1.9393 895.66 102.683 639.033 138.666 884.885C154.085 990.214 327.704 876.501 327.704 876.501" stroke="url(#paint101_linear_19_2)" stroke-width="0.75" stroke-miterlimit="10"/>
</g>
<defs>
<linearGradient id="paint0_linear_19_2" x1="215.472" y1="49.274" x2="797.374" y2="196.342" gradientUnits="userSpaceOnUse">
<stop stop-color="#15FFC1"/>
<stop offset="0.5" stop-color="#064232"/>
<stop offset="1" stop-color="#00F4FF"/>
</linearGradient>
<linearGradient id="paint1_linear_19_2" x1="213.514" y1="57.0209" x2="792.646" y2="203.389" gradientUnits="userSpaceOnUse">
<stop stop-color="#15FFC1"/>
<stop offset="0.5" stop-color="#064232"/>
<stop offset="1" stop-color="#00F4FF"/>
</linearGradient>
<linearGradient id="paint2_linear_19_2" x1="211.519" y1="64.9133" x2="787.891" y2="210.583" gradientUnits="userSpaceOnUse">
<stop stop-color="#15FFC1"/>
<stop offset="0.5" stop-color="#064232"/>
<stop offset="1" stop-color="#00F4FF"/>
</linearGradient>
<linearGradient id="paint3_linear_19_2" x1="209.544" y1="72.7281" x2="783.145" y2="217.698" gradientUnits="userSpaceOnUse">
<stop stop-color="#15FFC1"/>
<stop offset="0.5" stop-color="#064232"/>
<stop offset="1" stop-color="#00F4FF"/>
</linearGradient>
<linearGradient id="paint4_linear_19_2" x1="207.559" y1="80.5405" x2="778.4" y2="224.813" gradientUnits="userSpaceOnUse">
<stop stop-color="#15FFC1"/>
<stop offset="0.5" stop-color="#064232"/>
<stop offset="1" stop-color="#00F4FF"/>
</linearGradient>
<linearGradient id="paint5_linear_19_2" x1="205.584" y1="88.3553" x2="773.655" y2="231.927" gradientUnits="userSpaceOnUse">
<stop stop-color="#15FFC1"/>
<stop offset="0.5" stop-color="#064232"/>
<stop offset="1" stop-color="#00F4FF"/>
</linearGradient>
<linearGradient id="paint6_linear_19_2" x1="203.609" y1="96.1701" x2="768.909" y2="239.042" gradientUnits="userSpaceOnUse">
<stop stop-color="#15FFC1"/>
<stop offset="0.5" stop-color="#064232"/>
<stop offset="1" stop-color="#00F4FF"/>
</linearGradient>
<linearGradient id="paint7_linear_19_2" x1="201.634" y1="103.985" x2="764.164" y2="246.157" gradientUnits="userSpaceOnUse">
<stop stop-color="#15FFC1"/>
<stop offset="0.5" stop-color="#064232"/>
<stop offset="1" stop-color="#00F4FF"/>
</linearGradient>
<linearGradient id="paint8_linear_19_2" x1="199.661" y1="111.79" x2="759.431" y2="253.264" gradientUnits="userSpaceOnUse">
<stop stop-color="#15FFC1"/>
<stop offset="0.5" stop-color="#064232"/>
<stop offset="1" stop-color="#00F4FF"/>
</linearGradient>
<linearGradient id="paint9_linear_19_2" x1="197.689" y1="119.595" x2="754.688" y2="260.369" gradientUnits="userSpaceOnUse">
<stop stop-color="#15FFC1"/>
<stop offset="0.5" stop-color="#064232"/>
<stop offset="1" stop-color="#00F4FF"/>
</linearGradient>
<linearGradient id="paint10_linear_19_2" x1="195.714" y1="127.41" x2="749.943" y2="267.484" gradientUnits="userSpaceOnUse">
<stop stop-color="#15FFC1"/>
<stop offset="0.5" stop-color="#064232"/>
<stop offset="1" stop-color="#00F4FF"/>
</linearGradient>
<linearGradient id="paint11_linear_19_2" x1="193.741" y1="135.215" x2="745.2" y2="274.589" gradientUnits="userSpaceOnUse">
<stop stop-color="#15FFC1"/>
<stop offset="0.5" stop-color="#064232"/>
<stop offset="1" stop-color="#00F4FF"/>
</linearGradient>
<linearGradient id="paint12_linear_19_2" x1="191.771" y1="143.01" x2="740.46" y2="281.684" gradientUnits="userSpaceOnUse">
<stop stop-color="#15FFC1"/>
<stop offset="0.5" stop-color="#064232"/>
<stop offset="1" stop-color="#00F4FF"/>
</linearGradient>
<linearGradient id="paint13_linear_19_2" x1="189.798" y1="150.816" x2="735.717" y2="288.789" gradientUnits="userSpaceOnUse">
<stop stop-color="#15FFC1"/>
<stop offset="0.5" stop-color="#064232"/>
<stop offset="1" stop-color="#00F4FF"/>
</linearGradient>
<linearGradient id="paint14_linear_19_2" x1="187.828" y1="158.611" x2="730.986" y2="295.887" gradientUnits="userSpaceOnUse">
<stop stop-color="#15FFC1"/>
<stop offset="0.5" stop-color="#064232"/>
<stop offset="1" stop-color="#00F4FF"/>
</linearGradient>
<linearGradient id="paint15_linear_19_2" x1="185.855" y1="166.416" x2="726.243" y2="302.992" gradientUnits="userSpaceOnUse">
<stop stop-color="#15FFC1"/>
<stop offset="0.5" stop-color="#064232"/>
<stop offset="1" stop-color="#00F4FF"/>
</linearGradient>
<linearGradient id="paint16_linear_19_2" x1="183.885" y1="174.212" x2="721.503" y2="310.087" gradientUnits="userSpaceOnUse">
<stop stop-color="#15FFC1"/>
<stop offset="0.5" stop-color="#064232"/>
<stop offset="1" stop-color="#00F4FF"/>
</linearGradient>
<linearGradient id="paint17_linear_19_2" x1="181.915" y1="182.007" x2="716.762" y2="317.182" gradientUnits="userSpaceOnUse">
<stop stop-color="#15FFC1"/>
<stop offset="0.5" stop-color="#064232"/>
<stop offset="1" stop-color="#00F4FF"/>
</linearGradient>
<linearGradient id="paint18_linear_19_2" x1="179.947" y1="189.793" x2="712.024" y2="324.268" gradientUnits="userSpaceOnUse">
<stop stop-color="#15FFC1"/>
<stop offset="0.5" stop-color="#064232"/>
<stop offset="1" stop-color="#00F4FF"/>
</linearGradient>
<linearGradient id="paint19_linear_19_2" x1="177.977" y1="197.588" x2="707.284" y2="331.363" gradientUnits="userSpaceOnUse">
<stop stop-color="#15FFC1"/>
<stop offset="0.5" stop-color="#064232"/>
<stop offset="1" stop-color="#00F4FF"/>
</linearGradient>
<linearGradient id="paint20_linear_19_2" x1="176.009" y1="205.374" x2="702.556" y2="338.451" gradientUnits="userSpaceOnUse">
<stop stop-color="#15FFC1"/>
<stop offset="0.5" stop-color="#064232"/>
<stop offset="1" stop-color="#00F4FF"/>
</linearGradient>
<linearGradient id="paint21_linear_19_2" x1="174.042" y1="213.159" x2="697.818" y2="345.537" gradientUnits="userSpaceOnUse">
<stop stop-color="#15FFC1"/>
<stop offset="0.5" stop-color="#064232"/>
<stop offset="1" stop-color="#00F4FF"/>
</linearGradient>
<linearGradient id="paint22_linear_19_2" x1="172.074" y1="220.945" x2="693.08" y2="352.622" gradientUnits="userSpaceOnUse">
<stop stop-color="#15FFC1"/>
<stop offset="0.5" stop-color="#064232"/>
<stop offset="1" stop-color="#00F4FF"/>
</linearGradient>
<linearGradient id="paint23_linear_19_2" x1="170.106" y1="228.731" x2="688.342" y2="359.708" gradientUnits="userSpaceOnUse">
<stop stop-color="#15FFC1"/>
<stop offset="0.5" stop-color="#064232"/>
<stop offset="1" stop-color="#00F4FF"/>
</linearGradient>
<linearGradient id="paint24_linear_19_2" x1="168.141" y1="236.507" x2="683.606" y2="366.784" gradientUnits="userSpaceOnUse">
<stop stop-color="#15FFC1"/>
<stop offset="0.5" stop-color="#064232"/>
<stop offset="1" stop-color="#00F4FF"/>
</linearGradient>
<linearGradient id="paint25_linear_19_2" x1="166.173" y1="244.293" x2="678.868" y2="373.869" gradientUnits="userSpaceOnUse">
<stop stop-color="#15FFC1"/>
<stop offset="0.5" stop-color="#064232"/>
<stop offset="1" stop-color="#00F4FF"/>
</linearGradient>
<linearGradient id="paint26_linear_19_2" x1="164.208" y1="252.069" x2="674.143" y2="380.948" gradientUnits="userSpaceOnUse">
<stop stop-color="#15FFC1"/>
<stop offset="0.5" stop-color="#064232"/>
<stop offset="1" stop-color="#00F4FF"/>
</linearGradient>
<linearGradient id="paint27_linear_19_2" x1="162.243" y1="259.845" x2="669.407" y2="388.024" gradientUnits="userSpaceOnUse">
<stop stop-color="#15FFC1"/>
<stop offset="0.5" stop-color="#064232"/>
<stop offset="1" stop-color="#00F4FF"/>
</linearGradient>
<linearGradient id="paint28_linear_19_2" x1="160.268" y1="267.618" x2="664.672" y2="395.1" gradientUnits="userSpaceOnUse">
<stop stop-color="#15FFC1"/>
<stop offset="0.5" stop-color="#064232"/>
<stop offset="1" stop-color="#00F4FF"/>
</linearGradient>
<linearGradient id="paint29_linear_19_2" x1="158.305" y1="275.385" x2="659.939" y2="402.166" gradientUnits="userSpaceOnUse">
<stop stop-color="#15FFC1"/>
<stop offset="0.5" stop-color="#064232"/>
<stop offset="1" stop-color="#00F4FF"/>
</linearGradient>
<linearGradient id="paint30_linear_19_2" x1="156.342" y1="283.151" x2="655.206" y2="409.232" gradientUnits="userSpaceOnUse">
<stop stop-color="#15FFC1"/>
<stop offset="0.5" stop-color="#064232"/>
<stop offset="1" stop-color="#00F4FF"/>
</linearGradient>
<linearGradient id="paint31_linear_19_2" x1="154.377" y1="290.927" x2="650.47" y2="416.308" gradientUnits="userSpaceOnUse">
<stop stop-color="#15FFC1"/>
<stop offset="0.5" stop-color="#064232"/>
<stop offset="1" stop-color="#00F4FF"/>
</linearGradient>
<linearGradient id="paint32_linear_19_2" x1="152.416" y1="298.684" x2="645.739" y2="423.364" gradientUnits="userSpaceOnUse">
<stop stop-color="#15FFC1"/>
<stop offset="0.5" stop-color="#064232"/>
<stop offset="1" stop-color="#00F4FF"/>
</linearGradient>
<linearGradient id="paint33_linear_19_2" x1="150.454" y1="306.45" x2="641.016" y2="430.433" gradientUnits="userSpaceOnUse">
<stop stop-color="#15FFC1"/>
<stop offset="0.5" stop-color="#064232"/>
<stop offset="1" stop-color="#00F4FF"/>
</linearGradient>
<linearGradient id="paint34_linear_19_2" x1="148.491" y1="314.216" x2="636.283" y2="437.499" gradientUnits="userSpaceOnUse">
<stop stop-color="#15FFC1"/>
<stop offset="0.5" stop-color="#064232"/>
<stop offset="1" stop-color="#00F4FF"/>
</linearGradient>
<linearGradient id="paint35_linear_19_2" x1="146.53" y1="321.973" x2="631.552" y2="444.556" gradientUnits="userSpaceOnUse">
<stop stop-color="#15FFC1"/>
<stop offset="0.5" stop-color="#064232"/>
<stop offset="1" stop-color="#00F4FF"/>
</linearGradient>
<linearGradient id="paint36_linear_19_2" x1="144.57" y1="329.73" x2="626.822" y2="451.612" gradientUnits="userSpaceOnUse">
<stop stop-color="#15FFC1"/>
<stop offset="0.5" stop-color="#064232"/>
<stop offset="1" stop-color="#00F4FF"/>
</linearGradient>
<linearGradient id="paint37_linear_19_2" x1="142.61" y1="337.486" x2="622.091" y2="458.669" gradientUnits="userSpaceOnUse">
<stop stop-color="#15FFC1"/>
<stop offset="0.5" stop-color="#064232"/>
<stop offset="1" stop-color="#00F4FF"/>
</linearGradient>
<linearGradient id="paint38_linear_19_2" x1="140.649" y1="345.243" x2="617.361" y2="465.725" gradientUnits="userSpaceOnUse">
<stop stop-color="#15FFC1"/>
<stop offset="0.5" stop-color="#064232"/>
<stop offset="1" stop-color="#00F4FF"/>
</linearGradient>
<linearGradient id="paint39_linear_19_2" x1="138.691" y1="352.99" x2="612.642" y2="472.774" gradientUnits="userSpaceOnUse">
<stop stop-color="#15FFC1"/>
<stop offset="0.5" stop-color="#064232"/>
<stop offset="1" stop-color="#00F4FF"/>
</linearGradient>
<linearGradient id="paint40_linear_19_2" x1="136.733" y1="360.737" x2="607.914" y2="479.821" gradientUnits="userSpaceOnUse">
<stop stop-color="#15FFC1"/>
<stop offset="0.5" stop-color="#064232"/>
<stop offset="1" stop-color="#00F4FF"/>
</linearGradient>
<linearGradient id="paint41_linear_19_2" x1="134.775" y1="368.484" x2="603.186" y2="486.868" gradientUnits="userSpaceOnUse">
<stop stop-color="#15FFC1"/>
<stop offset="0.5" stop-color="#064232"/>
<stop offset="1" stop-color="#00F4FF"/>
</linearGradient>
<linearGradient id="paint42_linear_19_2" x1="132.817" y1="376.231" x2="598.458" y2="493.915" gradientUnits="userSpaceOnUse">
<stop stop-color="#15FFC1"/>
<stop offset="0.5" stop-color="#064232"/>
<stop offset="1" stop-color="#00F4FF"/>
</linearGradient>
<linearGradient id="paint43_linear_19_2" x1="130.859" y1="383.977" x2="593.73" y2="500.962" gradientUnits="userSpaceOnUse">
<stop stop-color="#15FFC1"/>
<stop offset="0.5" stop-color="#064232"/>
<stop offset="1" stop-color="#00F4FF"/>
</linearGradient>
<linearGradient id="paint44_linear_19_2" x1="128.904" y1="391.715" x2="589.004" y2="507.999" gradientUnits="userSpaceOnUse">
<stop stop-color="#15FFC1"/>
<stop offset="0.5" stop-color="#064232"/>
<stop offset="1" stop-color="#00F4FF"/>
</linearGradient>
<linearGradient id="paint45_linear_19_2" x1="126.949" y1="399.452" x2="584.278" y2="515.036" gradientUnits="userSpaceOnUse">
<stop stop-color="#15FFC1"/>
<stop offset="0.5" stop-color="#064232"/>
<stop offset="1" stop-color="#00F4FF"/>
</linearGradient>
<linearGradient id="paint46_linear_19_2" x1="124.993" y1="407.189" x2="579.562" y2="522.075" gradientUnits="userSpaceOnUse">
<stop stop-color="#15FFC1"/>
<stop offset="0.5" stop-color="#064232"/>
<stop offset="1" stop-color="#00F4FF"/>
</linearGradient>
<linearGradient id="paint47_linear_19_2" x1="123.038" y1="414.926" x2="574.836" y2="529.112" gradientUnits="userSpaceOnUse">
<stop stop-color="#15FFC1"/>
<stop offset="0.5" stop-color="#064232"/>
<stop offset="1" stop-color="#00F4FF"/>
</linearGradient>
<linearGradient id="paint48_linear_19_2" x1="121.082" y1="422.664" x2="570.111" y2="536.15" gradientUnits="userSpaceOnUse">
<stop stop-color="#15FFC1"/>
<stop offset="0.5" stop-color="#064232"/>
<stop offset="1" stop-color="#00F4FF"/>
</linearGradient>
<linearGradient id="paint49_linear_19_2" x1="119.129" y1="430.391" x2="565.388" y2="543.177" gradientUnits="userSpaceOnUse">
<stop stop-color="#15FFC1"/>
<stop offset="0.5" stop-color="#064232"/>
<stop offset="1" stop-color="#00F4FF"/>
</linearGradient>
<linearGradient id="paint50_linear_19_2" x1="117.176" y1="438.119" x2="560.664" y2="550.204" gradientUnits="userSpaceOnUse">
<stop stop-color="#15FFC1"/>
<stop offset="0.5" stop-color="#064232"/>
<stop offset="1" stop-color="#00F4FF"/>
</linearGradient>
<linearGradient id="paint51_linear_19_2" x1="115.223" y1="445.846" x2="555.941" y2="557.232" gradientUnits="userSpaceOnUse">
<stop stop-color="#15FFC1"/>
<stop offset="0.5" stop-color="#064232"/>
<stop offset="1" stop-color="#00F4FF"/>
</linearGradient>
<linearGradient id="paint52_linear_19_2" x1="113.272" y1="453.564" x2="551.22" y2="564.249" gradientUnits="userSpaceOnUse">
<stop stop-color="#15FFC1"/>
<stop offset="0.5" stop-color="#064232"/>
<stop offset="1" stop-color="#00F4FF"/>
</linearGradient>
<linearGradient id="paint53_linear_19_2" x1="111.319" y1="461.292" x2="546.507" y2="571.279" gradientUnits="userSpaceOnUse">
<stop stop-color="#15FFC1"/>
<stop offset="0.5" stop-color="#064232"/>
<stop offset="1" stop-color="#00F4FF"/>
</linearGradient>
<linearGradient id="paint54_linear_19_2" x1="109.369" y1="469.01" x2="541.786" y2="578.297" gradientUnits="userSpaceOnUse">
<stop stop-color="#15FFC1"/>
<stop offset="0.5" stop-color="#064232"/>
<stop offset="1" stop-color="#00F4FF"/>
</linearGradient>
<linearGradient id="paint55_linear_19_2" x1="107.418" y1="476.727" x2="537.065" y2="585.315" gradientUnits="userSpaceOnUse">
<stop stop-color="#15FFC1"/>
<stop offset="0.5" stop-color="#064232"/>
<stop offset="1" stop-color="#00F4FF"/>
</linearGradient>
<linearGradient id="paint56_linear_19_2" x1="105.468" y1="484.445" x2="532.344" y2="592.332" gradientUnits="userSpaceOnUse">
<stop stop-color="#15FFC1"/>
<stop offset="0.5" stop-color="#064232"/>
<stop offset="1" stop-color="#00F4FF"/>
</linearGradient>
<linearGradient id="paint57_linear_19_2" x1="103.52" y1="492.153" x2="527.626" y2="599.34" gradientUnits="userSpaceOnUse">
<stop stop-color="#15FFC1"/>
<stop offset="0.5" stop-color="#064232"/>
<stop offset="1" stop-color="#00F4FF"/>
</linearGradient>
<linearGradient id="paint58_linear_19_2" x1="101.571" y1="499.862" x2="522.908" y2="606.349" gradientUnits="userSpaceOnUse">
<stop stop-color="#15FFC1"/>
<stop offset="0.5" stop-color="#064232"/>
<stop offset="1" stop-color="#00F4FF"/>
</linearGradient>
<linearGradient id="paint59_linear_19_2" x1="99.6233" y1="507.57" x2="518.189" y2="613.357" gradientUnits="userSpaceOnUse">
<stop stop-color="#15FFC1"/>
<stop offset="0.5" stop-color="#064232"/>
<stop offset="1" stop-color="#00F4FF"/>
</linearGradient>
<linearGradient id="paint60_linear_19_2" x1="97.6751" y1="515.278" x2="513.481" y2="620.367" gradientUnits="userSpaceOnUse">
<stop stop-color="#15FFC1"/>
<stop offset="0.5" stop-color="#064232"/>
<stop offset="1" stop-color="#00F4FF"/>
</linearGradient>
<linearGradient id="paint61_linear_19_2" x1="95.727" y1="522.986" x2="508.762" y2="627.375" gradientUnits="userSpaceOnUse">
<stop stop-color="#15FFC1"/>
<stop offset="0.5" stop-color="#064232"/>
<stop offset="1" stop-color="#00F4FF"/>
</linearGradient>
<linearGradient id="paint62_linear_19_2" x1="93.7813" y1="530.684" x2="504.046" y2="634.373" gradientUnits="userSpaceOnUse">
<stop stop-color="#15FFC1"/>
<stop offset="0.5" stop-color="#064232"/>
<stop offset="1" stop-color="#00F4FF"/>
</linearGradient>
<linearGradient id="paint63_linear_19_2" x1="91.8332" y1="538.393" x2="499.328" y2="641.381" gradientUnits="userSpaceOnUse">
<stop stop-color="#15FFC1"/>
<stop offset="0.5" stop-color="#064232"/>
<stop offset="1" stop-color="#00F4FF"/>
</linearGradient>
<linearGradient id="paint64_linear_19_2" x1="89.89" y1="546.081" x2="494.615" y2="648.37" gradientUnits="userSpaceOnUse">
<stop stop-color="#15FFC1"/>
<stop offset="0.5" stop-color="#064232"/>
<stop offset="1" stop-color="#00F4FF"/>
</linearGradient>
<linearGradient id="paint65_linear_19_2" x1="87.9443" y1="553.78" x2="489.899" y2="655.368" gradientUnits="userSpaceOnUse">
<stop stop-color="#15FFC1"/>
<stop offset="0.5" stop-color="#064232"/>
<stop offset="1" stop-color="#00F4FF"/>
</linearGradient>
<linearGradient id="paint66_linear_19_2" x1="85.9986" y1="561.478" x2="485.183" y2="662.367" gradientUnits="userSpaceOnUse">
<stop stop-color="#15FFC1"/>
<stop offset="0.5" stop-color="#064232"/>
<stop offset="1" stop-color="#00F4FF"/>
</linearGradient>
<linearGradient id="paint67_linear_19_2" x1="84.0553" y1="569.167" x2="480.479" y2="669.358" gradientUnits="userSpaceOnUse">
<stop stop-color="#15FFC1"/>
<stop offset="0.5" stop-color="#064232"/>
<stop offset="1" stop-color="#00F4FF"/>
</linearGradient>
<linearGradient id="paint68_linear_19_2" x1="82.1121" y1="576.856" x2="475.766" y2="676.346" gradientUnits="userSpaceOnUse">
<stop stop-color="#15FFC1"/>
<stop offset="0.5" stop-color="#064232"/>
<stop offset="1" stop-color="#00F4FF"/>
</linearGradient>
<linearGradient id="paint69_linear_19_2" x1="80.1689" y1="584.545" x2="471.052" y2="683.335" gradientUnits="userSpaceOnUse">
<stop stop-color="#15FFC1"/>
<stop offset="0.5" stop-color="#064232"/>
<stop offset="1" stop-color="#00F4FF"/>
</linearGradient>
<linearGradient id="paint70_linear_19_2" x1="78.2257" y1="592.233" x2="466.339" y2="690.324" gradientUnits="userSpaceOnUse">
<stop stop-color="#15FFC1"/>
<stop offset="0.5" stop-color="#064232"/>
<stop offset="1" stop-color="#00F4FF"/>
</linearGradient>
<linearGradient id="paint71_linear_19_2" x1="76.2849" y1="599.912" x2="461.628" y2="697.303" gradientUnits="userSpaceOnUse">
<stop stop-color="#15FFC1"/>
<stop offset="0.5" stop-color="#064232"/>
<stop offset="1" stop-color="#00F4FF"/>
</linearGradient>
<linearGradient id="paint72_linear_19_2" x1="74.3441" y1="607.591" x2="456.917" y2="704.281" gradientUnits="userSpaceOnUse">
<stop stop-color="#15FFC1"/>
<stop offset="0.5" stop-color="#064232"/>
<stop offset="1" stop-color="#00F4FF"/>
</linearGradient>
<linearGradient id="paint73_linear_19_2" x1="72.3936" y1="615.268" x2="452.215" y2="711.263" gradientUnits="userSpaceOnUse">
<stop stop-color="#15FFC1"/>
<stop offset="0.5" stop-color="#064232"/>
<stop offset="1" stop-color="#00F4FF"/>
</linearGradient>
<linearGradient id="paint74_linear_19_2" x1="70.4528" y1="622.947" x2="447.504" y2="718.242" gradientUnits="userSpaceOnUse">
<stop stop-color="#15FFC1"/>
<stop offset="0.5" stop-color="#064232"/>
<stop offset="1" stop-color="#00F4FF"/>
</linearGradient>
<linearGradient id="paint75_linear_19_2" x1="68.512" y1="630.626" x2="442.793" y2="725.221" gradientUnits="userSpaceOnUse">
<stop stop-color="#15FFC1"/>
<stop offset="0.5" stop-color="#064232"/>
<stop offset="1" stop-color="#00F4FF"/>
</linearGradient>
<linearGradient id="paint76_linear_19_2" x1="66.5737" y1="638.296" x2="438.085" y2="732.19" gradientUnits="userSpaceOnUse">
<stop stop-color="#15FFC1"/>
<stop offset="0.5" stop-color="#064232"/>
<stop offset="1" stop-color="#00F4FF"/>
</linearGradient>
<linearGradient id="paint77_linear_19_2" x1="64.633" y1="645.975" x2="433.374" y2="739.169" gradientUnits="userSpaceOnUse">
<stop stop-color="#15FFC1"/>
<stop offset="0.5" stop-color="#064232"/>
<stop offset="1" stop-color="#00F4FF"/>
</linearGradient>
<linearGradient id="paint78_linear_19_2" x1="62.6946" y1="653.644" x2="428.665" y2="746.138" gradientUnits="userSpaceOnUse">
<stop stop-color="#15FFC1"/>
<stop offset="0.5" stop-color="#064232"/>
<stop offset="1" stop-color="#00F4FF"/>
</linearGradient>
<linearGradient id="paint79_linear_19_2" x1="60.7587" y1="661.304" x2="423.959" y2="753.098" gradientUnits="userSpaceOnUse">
<stop stop-color="#15FFC1"/>
<stop offset="0.5" stop-color="#064232"/>
<stop offset="1" stop-color="#00F4FF"/>
</linearGradient>
<linearGradient id="paint80_linear_19_2" x1="58.8204" y1="668.973" x2="419.26" y2="760.069" gradientUnits="userSpaceOnUse">
<stop stop-color="#15FFC1"/>
<stop offset="0.5" stop-color="#064232"/>
<stop offset="1" stop-color="#00F4FF"/>
</linearGradient>
<linearGradient id="paint81_linear_19_2" x1="56.8821" y1="676.642" x2="414.552" y2="767.039" gradientUnits="userSpaceOnUse">
<stop stop-color="#15FFC1"/>
<stop offset="0.5" stop-color="#064232"/>
<stop offset="1" stop-color="#00F4FF"/>
</linearGradient>
<linearGradient id="paint82_linear_19_2" x1="54.9462" y1="684.302" x2="409.846" y2="773.998" gradientUnits="userSpaceOnUse">
<stop stop-color="#15FFC1"/>
<stop offset="0.5" stop-color="#064232"/>
<stop offset="1" stop-color="#00F4FF"/>
</linearGradient>
<linearGradient id="paint83_linear_19_2" x1="53.0103" y1="691.962" x2="405.14" y2="780.958" gradientUnits="userSpaceOnUse">
<stop stop-color="#15FFC1"/>
<stop offset="0.5" stop-color="#064232"/>
<stop offset="1" stop-color="#00F4FF"/>
</linearGradient>
<linearGradient id="paint84_linear_19_2" x1="51.0744" y1="699.621" x2="400.433" y2="787.917" gradientUnits="userSpaceOnUse">
<stop stop-color="#15FFC1"/>
<stop offset="0.5" stop-color="#064232"/>
<stop offset="1" stop-color="#00F4FF"/>
</linearGradient>
<linearGradient id="paint85_linear_19_2" x1="49.1386" y1="707.281" x2="395.727" y2="794.877" gradientUnits="userSpaceOnUse">
<stop stop-color="#15FFC1"/>
<stop offset="0.5" stop-color="#064232"/>
<stop offset="1" stop-color="#00F4FF"/>
</linearGradient>
<linearGradient id="paint86_linear_19_2" x1="47.2027" y1="714.941" x2="391.021" y2="801.836" gradientUnits="userSpaceOnUse">
<stop stop-color="#15FFC1"/>
<stop offset="0.5" stop-color="#064232"/>
<stop offset="1" stop-color="#00F4FF"/>
</linearGradient>
<linearGradient id="paint87_linear_19_2" x1="45.2693" y1="722.591" x2="386.327" y2="808.788" gradientUnits="userSpaceOnUse">
<stop stop-color="#15FFC1"/>
<stop offset="0.5" stop-color="#064232"/>
<stop offset="1" stop-color="#00F4FF"/>
</linearGradient>
<linearGradient id="paint88_linear_19_2" x1="43.3358" y1="730.241" x2="381.624" y2="815.738" gradientUnits="userSpaceOnUse">
<stop stop-color="#15FFC1"/>
<stop offset="0.5" stop-color="#064232"/>
<stop offset="1" stop-color="#00F4FF"/>
</linearGradient>
<linearGradient id="paint89_linear_19_2" x1="41.4" y1="737.9" x2="376.918" y2="822.698" gradientUnits="userSpaceOnUse">
<stop stop-color="#15FFC1"/>
<stop offset="0.5" stop-color="#064232"/>
<stop offset="1" stop-color="#00F4FF"/>
</linearGradient>
<linearGradient id="paint90_linear_19_2" x1="39.4666" y1="745.55" x2="372.214" y2="829.648" gradientUnits="userSpaceOnUse">
<stop stop-color="#15FFC1"/>
<stop offset="0.5" stop-color="#064232"/>
<stop offset="1" stop-color="#00F4FF"/>
</linearGradient>
<linearGradient id="paint91_linear_19_2" x1="37.5331" y1="753.2" x2="367.51" y2="836.598" gradientUnits="userSpaceOnUse">
<stop stop-color="#15FFC1"/>
<stop offset="0.5" stop-color="#064232"/>
<stop offset="1" stop-color="#00F4FF"/>
</linearGradient>
<linearGradient id="paint92_linear_19_2" x1="35.5997" y1="760.85" x2="362.807" y2="843.547" gradientUnits="userSpaceOnUse">
<stop stop-color="#15FFC1"/>
<stop offset="0.5" stop-color="#064232"/>
<stop offset="1" stop-color="#00F4FF"/>
</linearGradient>
<linearGradient id="paint93_linear_19_2" x1="33.6687" y1="768.491" x2="358.115" y2="850.49" gradientUnits="userSpaceOnUse">
<stop stop-color="#15FFC1"/>
<stop offset="0.5" stop-color="#064232"/>
<stop offset="1" stop-color="#00F4FF"/>
</linearGradient>
<linearGradient id="paint94_linear_19_2" x1="31.7353" y1="776.141" x2="353.412" y2="857.44" gradientUnits="userSpaceOnUse">
<stop stop-color="#15FFC1"/>
<stop offset="0.5" stop-color="#064232"/>
<stop offset="1" stop-color="#00F4FF"/>
</linearGradient>
<linearGradient id="paint95_linear_19_2" x1="29.8018" y1="783.791" x2="348.708" y2="864.39" gradientUnits="userSpaceOnUse">
<stop stop-color="#15FFC1"/>
<stop offset="0.5" stop-color="#064232"/>
<stop offset="1" stop-color="#00F4FF"/>
</linearGradient>
<linearGradient id="paint96_linear_19_2" x1="27.8709" y1="791.431" x2="344.007" y2="871.33" gradientUnits="userSpaceOnUse">
<stop stop-color="#15FFC1"/>
<stop offset="0.5" stop-color="#064232"/>
<stop offset="1" stop-color="#00F4FF"/>
</linearGradient>
<linearGradient id="paint97_linear_19_2" x1="25.9374" y1="799.081" x2="339.303" y2="878.28" gradientUnits="userSpaceOnUse">
<stop stop-color="#15FFC1"/>
<stop offset="0.5" stop-color="#064232"/>
<stop offset="1" stop-color="#00F4FF"/>
</linearGradient>
<linearGradient id="paint98_linear_19_2" x1="24.0065" y1="806.721" x2="334.602" y2="885.22" gradientUnits="userSpaceOnUse">
<stop stop-color="#15FFC1"/>
<stop offset="0.5" stop-color="#064232"/>
<stop offset="1" stop-color="#00F4FF"/>
</linearGradient>
<linearGradient id="paint99_linear_19_2" x1="22.0755" y1="814.361" x2="329.91" y2="892.162" gradientUnits="userSpaceOnUse">
<stop stop-color="#15FFC1"/>
<stop offset="0.5" stop-color="#064232"/>
<stop offset="1" stop-color="#00F4FF"/>
</linearGradient>
<linearGradient id="paint100_linear_19_2" x1="20.1421" y1="822.011" x2="325.207" y2="899.112" gradientUnits="userSpaceOnUse">
<stop stop-color="#15FFC1"/>
<stop offset="0.5" stop-color="#064232"/>
<stop offset="1" stop-color="#00F4FF"/>
</linearGradient>
<linearGradient id="paint101_linear_19_2" x1="18.2111" y1="829.652" x2="320.506" y2="906.052" gradientUnits="userSpaceOnUse">
<stop stop-color="#15FFC1"/>
<stop offset="0.5" stop-color="#064232"/>
<stop offset="1" stop-color="#00F4FF"/>
</linearGradient>
<clipPath id="clip0_19_2">
<rect width="737.46" height="917" fill="white" transform="translate(81.1999) rotate(5.08016)"/>
</clipPath>
</defs>
</svg>