<svg width="572" height="1233" viewBox="0 0 572 1233" fill="none" xmlns="http://www.w3.org/2000/svg">
<g clip-path="url(#clip0_21_194)">
<path d="M12.3709 533.4C12.3709 533.4 -56.1339 228.583 134.289 252.421C324.713 276.258 457.602 0.208801 457.602 0.208801" stroke="url(#paint0_linear_21_194)" stroke-width="0.75" stroke-miterlimit="10"/>
<path d="M16.1912 542.03C16.1912 542.03 -53.1737 237.295 138.47 262.744C327.703 287.858 459.032 10.9037 459.032 10.9037" stroke="url(#paint1_linear_21_194)" stroke-width="0.75" stroke-miterlimit="10"/>
<path d="M20.0015 550.672C20.0015 550.672 -50.2135 245.994 142.65 273.057C330.663 299.446 460.422 21.6102 460.422 21.6102" stroke="url(#paint2_linear_21_194)" stroke-width="0.75" stroke-miterlimit="10"/>
<path d="M23.8317 559.302C23.8317 559.302 -47.2733 254.683 146.84 283.38C333.673 310.999 461.862 32.3051 461.862 32.3051" stroke="url(#paint3_linear_21_194)" stroke-width="0.75" stroke-miterlimit="10"/>
<path d="M27.652 567.932C27.652 567.932 -44.333 263.371 151.011 293.704C336.644 322.529 463.232 43 463.232 43" stroke="url(#paint4_linear_21_194)" stroke-width="0.75" stroke-miterlimit="10"/>
<path d="M31.4822 576.574C31.4822 576.574 -41.4129 272.036 155.191 303.981C339.614 334.071 464.642 53.6949 464.642 53.6949" stroke="url(#paint5_linear_21_194)" stroke-width="0.75" stroke-miterlimit="10"/>
<path d="M35.3024 585.204C35.3024 585.204 -38.4827 280.712 159.371 314.351C342.584 345.508 466.032 64.3898 466.032 64.3898" stroke="url(#paint6_linear_21_194)" stroke-width="0.75" stroke-miterlimit="10"/>
<path d="M39.1227 593.904C39.1227 593.904 -35.5725 289.331 163.551 324.664C345.564 356.957 467.453 75.0848 467.453 75.0848" stroke="url(#paint7_linear_21_194)" stroke-width="0.75" stroke-miterlimit="10"/>
<path d="M42.9429 602.476C42.9429 602.476 -32.6623 297.973 167.732 334.987C348.524 368.394 468.863 85.8376 468.863 85.8376" stroke="url(#paint8_linear_21_194)" stroke-width="0.75" stroke-miterlimit="10"/>
<path d="M46.7633 611.106C46.7633 611.106 -29.7521 306.591 171.902 345.311C351.495 379.797 470.273 96.4862 470.273 96.4862" stroke="url(#paint9_linear_21_194)" stroke-width="0.75" stroke-miterlimit="10"/>
<path d="M50.5936 619.748C50.5936 619.748 -26.8519 315.198 176.082 355.635C354.465 391.176 471.683 107.181 471.683 107.181" stroke="url(#paint10_linear_21_194)" stroke-width="0.75" stroke-miterlimit="10"/>
<path d="M54.4138 628.378C54.4138 628.378 -24.0017 323.782 180.263 365.947C357.425 402.509 473.093 117.876 473.093 117.876" stroke="url(#paint11_linear_21_194)" stroke-width="0.75" stroke-miterlimit="10"/>
<path d="M58.2341 637.02C58.2341 637.02 -21.0715 332.366 184.443 376.271C360.395 413.865 474.463 128.571 474.463 128.571" stroke="url(#paint12_linear_21_194)" stroke-width="0.75" stroke-miterlimit="10"/>
<path d="M62.0544 645.65C62.0544 645.65 -18.1913 340.938 188.623 386.594C363.365 425.175 475.903 139.266 475.903 139.266" stroke="url(#paint13_linear_21_194)" stroke-width="0.75" stroke-miterlimit="10"/>
<path d="M65.8845 654.292C65.8845 654.292 -15.3011 349.487 192.803 396.918C366.326 436.461 477.313 149.961 477.313 149.961" stroke="url(#paint14_linear_21_194)" stroke-width="0.75" stroke-miterlimit="10"/>
<path d="M69.7048 662.922C69.7048 662.922 -12.4309 358.024 197.014 407.23C369.296 447.748 478.723 160.667 478.723 160.667" stroke="url(#paint15_linear_21_194)" stroke-width="0.75" stroke-miterlimit="10"/>
<path d="M73.5251 671.552C73.5251 671.552 -9.55073 366.55 201.164 417.589C372.266 459.011 480.123 171.397 480.123 171.397" stroke="url(#paint16_linear_21_194)" stroke-width="0.75" stroke-miterlimit="10"/>
<path d="M77.3454 680.194C77.3454 680.194 -6.66042 375.122 205.354 427.878C375.226 470.193 481.534 182.115 481.534 182.115" stroke="url(#paint17_linear_21_194)" stroke-width="0.75" stroke-miterlimit="10"/>
<path d="M81.1657 688.824C81.1657 688.824 -3.8403 383.555 209.525 438.201C378.196 481.399 482.944 192.752 482.944 192.752" stroke="url(#paint18_linear_21_194)" stroke-width="0.75" stroke-miterlimit="10"/>
<path d="M85.006 697.466C85.006 697.466 -0.940051 392.069 213.705 448.525C381.167 492.604 484.354 203.447 484.354 203.447" stroke="url(#paint19_linear_21_194)" stroke-width="0.75" stroke-miterlimit="10"/>
<path d="M88.8162 706.096C88.8162 706.096 1.92016 400.502 217.875 458.837C384.137 503.751 485.754 214.142 485.754 214.142" stroke="url(#paint20_linear_21_194)" stroke-width="0.75" stroke-miterlimit="10"/>
<path d="M92.6365 714.726C92.6365 714.726 4.79032 408.958 222.016 469.161C387.027 514.898 487.124 224.837 487.124 224.837" stroke="url(#paint21_linear_21_194)" stroke-width="0.75" stroke-miterlimit="10"/>
<path d="M96.4568 723.368C96.4568 723.368 7.65058 417.391 226.236 479.485C390.077 526.022 488.574 235.543 488.574 235.543" stroke="url(#paint22_linear_21_194)" stroke-width="0.75" stroke-miterlimit="10"/>
<path d="M100.277 731.998C100.277 731.998 10.5207 425.766 230.416 489.808C393.027 537.135 490.034 246.238 490.034 246.238" stroke="url(#paint23_linear_21_194)" stroke-width="0.75" stroke-miterlimit="10"/>
<path d="M104.107 740.64C104.107 740.64 13.381 434.223 234.596 500.12C396.028 548.224 491.384 256.933 491.384 256.933" stroke="url(#paint24_linear_21_194)" stroke-width="0.75" stroke-miterlimit="10"/>
<path d="M107.928 749.27C107.928 749.27 16.2411 442.609 238.777 510.444C399.008 559.29 492.794 267.628 492.794 267.628" stroke="url(#paint25_linear_21_194)" stroke-width="0.75" stroke-miterlimit="10"/>
<path d="M111.748 757.912C111.748 757.912 19.1114 450.984 242.957 520.826C401.968 570.415 494.205 278.392 494.205 278.392" stroke="url(#paint26_linear_21_194)" stroke-width="0.75" stroke-miterlimit="10"/>
<path d="M115.568 766.542C115.568 766.542 22.0016 459.347 247.137 531.092C404.968 581.388 495.615 289.018 495.615 289.018" stroke="url(#paint27_linear_21_194)" stroke-width="0.75" stroke-miterlimit="10"/>
<path d="M119.388 775.172C119.388 775.172 24.8417 467.676 251.318 541.415C407.959 592.407 497.035 299.724 497.035 299.724" stroke="url(#paint28_linear_21_194)" stroke-width="0.75" stroke-miterlimit="10"/>
<path d="M123.219 783.814C123.219 783.814 27.7119 475.993 255.498 551.727C410.949 603.416 498.425 310.454 498.425 310.454" stroke="url(#paint29_linear_21_194)" stroke-width="0.75" stroke-miterlimit="10"/>
<path d="M127.009 792.444C127.009 792.444 30.5822 484.298 259.668 562.051C413.929 614.412 499.835 321.114 499.835 321.114" stroke="url(#paint30_linear_21_194)" stroke-width="0.75" stroke-miterlimit="10"/>
<path d="M130.859 801.086C130.859 801.086 33.4523 492.534 263.868 572.375C416.949 625.385 501.265 331.809 501.265 331.809" stroke="url(#paint31_linear_21_194)" stroke-width="0.75" stroke-miterlimit="10"/>
<path d="M134.679 809.716C134.679 809.716 36.3226 500.851 268.019 582.699C419.909 636.347 502.635 342.504 502.635 342.504" stroke="url(#paint32_linear_21_194)" stroke-width="0.75" stroke-miterlimit="10"/>
<path d="M138.5 818.346C138.5 818.346 39.2027 509.098 272.209 593.022C422.92 647.262 504.035 353.199 504.035 353.199" stroke="url(#paint33_linear_21_194)" stroke-width="0.75" stroke-miterlimit="10"/>
<path d="M142.33 826.988C142.33 826.988 42.083 517.346 276.389 603.334C425.92 658.224 505.465 363.894 505.465 363.894" stroke="url(#paint34_linear_21_194)" stroke-width="0.75" stroke-miterlimit="10"/>
<path d="M146.15 835.618C146.15 835.618 45.0031 525.547 280.57 613.623C428.92 669.105 506.875 374.565 506.875 374.565" stroke="url(#paint35_linear_21_194)" stroke-width="0.75" stroke-miterlimit="10"/>
<path d="M150.011 844.26C150.011 844.26 47.9034 533.736 284.79 623.982C431.93 680.055 508.286 385.295 508.286 385.295" stroke="url(#paint36_linear_21_194)" stroke-width="0.75" stroke-miterlimit="10"/>
<path d="M153.791 852.89C153.791 852.89 50.7836 541.914 288.93 634.306C434.94 690.947 509.686 395.99 509.686 395.99" stroke="url(#paint37_linear_21_194)" stroke-width="0.75" stroke-miterlimit="10"/>
<path d="M157.621 861.52C157.621 861.52 53.6137 550.069 293.11 644.606C437.951 701.804 511.126 406.673 511.126 406.673" stroke="url(#paint38_linear_21_194)" stroke-width="0.75" stroke-miterlimit="10"/>
<path d="M161.441 870.162C161.441 870.162 56.564 558.2 297.291 654.941C440.971 712.685 512.506 417.38 512.506 417.38" stroke="url(#paint39_linear_21_194)" stroke-width="0.75" stroke-miterlimit="10"/>
<path d="M165.262 878.792C165.262 878.792 59.4742 566.32 301.461 665.265C444.031 723.542 513.916 428.028 513.916 428.028" stroke="url(#paint40_linear_21_194)" stroke-width="0.75" stroke-miterlimit="10"/>
<path d="M169.082 887.434C169.082 887.434 62.3844 574.416 305.641 675.589C447.031 734.388 515.316 438.77 515.316 438.77" stroke="url(#paint41_linear_21_194)" stroke-width="0.75" stroke-miterlimit="10"/>
<path d="M172.902 896.064C172.902 896.064 65.3146 582.49 309.822 685.913C450.031 745.21 516.726 449.476 516.726 449.476" stroke="url(#paint42_linear_21_194)" stroke-width="0.75" stroke-miterlimit="10"/>
<path d="M176.732 904.706C176.732 904.706 68.2448 590.54 314.022 696.225C453.032 756.033 518.136 460.171 518.136 460.171" stroke="url(#paint43_linear_21_194)" stroke-width="0.75" stroke-miterlimit="10"/>
<path d="M180.553 913.336C180.553 913.336 71.185 598.544 318.182 706.548C456.112 766.867 519.546 470.866 519.546 470.866" stroke="url(#paint44_linear_21_194)" stroke-width="0.75" stroke-miterlimit="10"/>
<path d="M184.373 921.966C184.373 921.966 74.1252 606.582 322.363 716.861C459.152 777.643 520.946 481.561 520.946 481.561" stroke="url(#paint45_linear_21_194)" stroke-width="0.75" stroke-miterlimit="10"/>
<path d="M188.193 930.608C188.193 930.608 77.0854 614.575 326.543 727.196C462.192 788.431 522.356 492.256 522.356 492.256" stroke="url(#paint46_linear_21_194)" stroke-width="0.75" stroke-miterlimit="10"/>
<path d="M192.013 939.238C192.013 939.238 80.0056 622.543 330.723 737.508C465.243 799.207 523.737 502.951 523.737 502.951" stroke="url(#paint47_linear_21_194)" stroke-width="0.75" stroke-miterlimit="10"/>
<path d="M195.844 947.88C195.844 947.88 83.0058 630.489 334.903 747.832C468.293 809.971 525.177 513.657 525.177 513.657" stroke="url(#paint48_linear_21_194)" stroke-width="0.75" stroke-miterlimit="10"/>
<path d="M199.664 956.51C199.664 956.51 86.0061 638.412 339.084 758.155C471.343 820.736 526.577 524.306 526.577 524.306" stroke="url(#paint49_linear_21_194)" stroke-width="0.75" stroke-miterlimit="10"/>
<path d="M203.484 965.094C203.484 965.094 89.0063 646.311 343.254 768.479C474.403 831.489 528.037 535.047 528.037 535.047" stroke="url(#paint50_linear_21_194)" stroke-width="0.75" stroke-miterlimit="10"/>
<path d="M207.304 973.782C207.304 973.782 92.0064 654.222 347.434 778.803C477.443 842.23 529.447 545.742 529.447 545.742" stroke="url(#paint51_linear_21_194)" stroke-width="0.75" stroke-miterlimit="10"/>
<path d="M211.125 982.412C211.125 982.412 95.0066 662.052 351.615 789.115C480.544 852.913 530.807 556.437 530.807 556.437" stroke="url(#paint52_linear_21_194)" stroke-width="0.75" stroke-miterlimit="10"/>
<path d="M214.955 991.054C214.955 991.054 98.0068 669.882 355.795 799.439C483.614 863.689 532.207 567.132 532.207 567.132" stroke="url(#paint53_linear_21_194)" stroke-width="0.75" stroke-miterlimit="10"/>
<path d="M218.775 999.684C218.775 999.684 101.057 677.688 360.025 809.762C486.744 874.396 533.667 577.769 533.667 577.769" stroke="url(#paint54_linear_21_194)" stroke-width="0.75" stroke-miterlimit="10"/>
<path d="M222.596 1008.33C222.596 1008.33 104.107 685.472 364.155 820.098C489.774 885.114 535.037 588.533 535.037 588.533" stroke="url(#paint55_linear_21_194)" stroke-width="0.75" stroke-miterlimit="10"/>
<path d="M226.416 1016.96C226.416 1016.96 107.167 693.232 368.336 830.398C492.864 895.809 536.437 599.228 536.437 599.228" stroke="url(#paint56_linear_21_194)" stroke-width="0.75" stroke-miterlimit="10"/>
<path d="M230.236 1025.59C230.236 1025.59 110.228 700.969 372.516 840.722C495.955 906.504 537.848 609.888 537.848 609.888" stroke="url(#paint57_linear_21_194)" stroke-width="0.75" stroke-miterlimit="10"/>
<path d="M234.066 1034.23C234.066 1034.23 113.328 708.741 376.696 851.046C499.035 917.187 539.248 620.583 539.248 620.583" stroke="url(#paint58_linear_21_194)" stroke-width="0.75" stroke-miterlimit="10"/>
<path d="M237.887 1042.81C237.887 1042.81 116.428 716.315 380.897 861.323C502.175 927.824 540.678 631.266 540.678 631.266" stroke="url(#paint59_linear_21_194)" stroke-width="0.75" stroke-miterlimit="10"/>
<path d="M241.707 1051.5C241.707 1051.5 119.538 724.029 385.027 871.693C505.245 938.542 542.038 642.019 542.038 642.019" stroke="url(#paint60_linear_21_194)" stroke-width="0.75" stroke-miterlimit="10"/>
<path d="M245.527 1060.13C245.527 1060.13 122.669 731.662 389.227 882.005C508.386 949.214 543.478 652.714 543.478 652.714" stroke="url(#paint61_linear_21_194)" stroke-width="0.75" stroke-miterlimit="10"/>
<path d="M249.357 1068.76C249.357 1068.76 125.819 739.329 393.368 892.329C511.496 959.874 544.878 663.409 544.878 663.409" stroke="url(#paint62_linear_21_194)" stroke-width="0.75" stroke-miterlimit="10"/>
<path d="M253.178 1077.4C253.178 1077.4 129.009 746.857 397.588 902.653C514.596 970.534 546.288 674.139 546.288 674.139" stroke="url(#paint63_linear_21_194)" stroke-width="0.75" stroke-miterlimit="10"/>
<path d="M257.018 1086.03C257.018 1086.03 132.159 754.409 401.768 912.976C517.776 981.183 547.698 684.799 547.698 684.799" stroke="url(#paint64_linear_21_194)" stroke-width="0.75" stroke-miterlimit="10"/>
<path d="M260.818 1094.67C260.818 1094.67 135.349 761.948 405.948 923.335C520.886 991.866 549.108 695.529 549.108 695.529" stroke="url(#paint65_linear_21_194)" stroke-width="0.75" stroke-miterlimit="10"/>
<path d="M264.638 1103.3C264.638 1103.3 138.57 769.442 410.129 933.612C524.037 1002.47 550.508 706.189 550.508 706.189" stroke="url(#paint66_linear_21_194)" stroke-width="0.75" stroke-miterlimit="10"/>
<path d="M268.469 1111.93C268.469 1111.93 141.8 776.924 414.309 943.936C527.177 1013.1 551.919 716.86 551.919 716.86" stroke="url(#paint67_linear_21_194)" stroke-width="0.75" stroke-miterlimit="10"/>
<path d="M272.289 1120.53C272.289 1120.53 145.01 784.371 418.489 954.26C530.327 1023.74 553.329 727.59 553.329 727.59" stroke="url(#paint68_linear_21_194)" stroke-width="0.75" stroke-miterlimit="10"/>
<path d="M276.109 1129.21C276.109 1129.21 148.31 791.795 422.67 964.583C533.477 1034.37 554.739 738.285 554.739 738.285" stroke="url(#paint69_linear_21_194)" stroke-width="0.75" stroke-miterlimit="10"/>
<path d="M279.93 1137.85C279.93 1137.85 151.601 799.218 426.85 974.895C536.647 1044.99 556.139 748.98 556.139 748.98" stroke="url(#paint70_linear_21_194)" stroke-width="0.75" stroke-miterlimit="10"/>
<path d="M283.75 1146.48C283.75 1146.48 154.911 806.607 431.02 985.242C539.818 1055.57 557.549 759.675 557.549 759.675" stroke="url(#paint71_linear_21_194)" stroke-width="0.75" stroke-miterlimit="10"/>
<path d="M287.58 1155.12C287.58 1155.12 158.241 813.903 435.2 995.543C543.038 1066.23 558.959 770.37 558.959 770.37" stroke="url(#paint72_linear_21_194)" stroke-width="0.75" stroke-miterlimit="10"/>
<path d="M291.4 1163.75C291.4 1163.75 161.591 821.211 439.411 1005.87C546.198 1076.85 560.419 781.065 560.419 781.065" stroke="url(#paint73_linear_21_194)" stroke-width="0.75" stroke-miterlimit="10"/>
<path d="M295.221 1172.38C295.221 1172.38 165.012 828.496 443.561 1016.19C549.358 1087.46 561.769 791.76 561.769 791.76" stroke="url(#paint74_linear_21_194)" stroke-width="0.75" stroke-miterlimit="10"/>
<path d="M299.021 1181.02C299.021 1181.02 168.362 835.757 447.741 1026.5C552.549 1098.06 563.179 802.466 563.179 802.466" stroke="url(#paint75_linear_21_194)" stroke-width="0.75" stroke-miterlimit="10"/>
<path d="M302.861 1189.65C302.861 1189.65 171.782 842.984 451.922 1036.83C555.749 1108.67 564.589 813.138 564.589 813.138" stroke="url(#paint76_linear_21_194)" stroke-width="0.75" stroke-miterlimit="10"/>
<path d="M306.691 1198.25C306.691 1198.25 175.222 850.129 456.102 1047.1C558.949 1119.28 566.04 823.856 566.04 823.856" stroke="url(#paint77_linear_21_194)" stroke-width="0.75" stroke-miterlimit="10"/>
<path d="M310.512 1206.92C310.512 1206.92 178.683 857.344 460.282 1057.47C562.169 1129.88 567.41 834.551 567.41 834.551" stroke="url(#paint78_linear_21_194)" stroke-width="0.75" stroke-miterlimit="10"/>
<path d="M314.332 1215.55C314.332 1215.55 182.173 864.49 464.462 1067.79C565.38 1140.48 568.81 845.246 568.81 845.246" stroke="url(#paint79_linear_21_194)" stroke-width="0.75" stroke-miterlimit="10"/>
<path d="M318.152 1224.2C318.152 1224.2 185.693 871.565 468.643 1078.11C568.65 1151.07 570.22 855.941 570.22 855.941" stroke="url(#paint80_linear_21_194)" stroke-width="0.75" stroke-miterlimit="10"/>
<path d="M322.023 1232.83C322.023 1232.83 189.233 878.688 472.813 1088.43C571.82 1161.67 571.63 866.647 571.63 866.647" stroke="url(#paint81_linear_21_194)" stroke-width="0.75" stroke-miterlimit="10"/>
</g>
<defs>
<linearGradient id="paint0_linear_21_194" x1="-9.37863e-06" y1="266.758" x2="457.932" y2="266.758" gradientUnits="userSpaceOnUse">
<stop stop-color="#15FFC1"/>
<stop offset="0.5" stop-color="#064232"/>
<stop offset="1" stop-color="#00F4FF"/>
</linearGradient>
<linearGradient id="paint1_linear_21_194" x1="3.58028" y1="276.42" x2="459.342" y2="276.42" gradientUnits="userSpaceOnUse">
<stop stop-color="#15FFC1"/>
<stop offset="0.5" stop-color="#064232"/>
<stop offset="1" stop-color="#00F4FF"/>
</linearGradient>
<linearGradient id="paint2_linear_21_194" x1="7.17055" y1="286.083" x2="460.752" y2="286.083" gradientUnits="userSpaceOnUse">
<stop stop-color="#15FFC1"/>
<stop offset="0.5" stop-color="#064232"/>
<stop offset="1" stop-color="#00F4FF"/>
</linearGradient>
<linearGradient id="paint3_linear_21_194" x1="10.7408" y1="295.757" x2="462.162" y2="295.757" gradientUnits="userSpaceOnUse">
<stop stop-color="#15FFC1"/>
<stop offset="0.5" stop-color="#064232"/>
<stop offset="1" stop-color="#00F4FF"/>
</linearGradient>
<linearGradient id="paint4_linear_21_194" x1="14.3211" y1="305.42" x2="463.562" y2="305.42" gradientUnits="userSpaceOnUse">
<stop stop-color="#15FFC1"/>
<stop offset="0.5" stop-color="#064232"/>
<stop offset="1" stop-color="#00F4FF"/>
</linearGradient>
<linearGradient id="paint5_linear_21_194" x1="17.8912" y1="315.094" x2="464.972" y2="315.094" gradientUnits="userSpaceOnUse">
<stop stop-color="#15FFC1"/>
<stop offset="0.5" stop-color="#064232"/>
<stop offset="1" stop-color="#00F4FF"/>
</linearGradient>
<linearGradient id="paint6_linear_21_194" x1="21.4614" y1="324.756" x2="466.383" y2="324.756" gradientUnits="userSpaceOnUse">
<stop stop-color="#15FFC1"/>
<stop offset="0.5" stop-color="#064232"/>
<stop offset="1" stop-color="#00F4FF"/>
</linearGradient>
<linearGradient id="paint7_linear_21_194" x1="25.0217" y1="334.431" x2="467.793" y2="334.431" gradientUnits="userSpaceOnUse">
<stop stop-color="#15FFC1"/>
<stop offset="0.5" stop-color="#064232"/>
<stop offset="1" stop-color="#00F4FF"/>
</linearGradient>
<linearGradient id="paint8_linear_21_194" x1="28.5819" y1="344.093" x2="469.203" y2="344.093" gradientUnits="userSpaceOnUse">
<stop stop-color="#15FFC1"/>
<stop offset="0.5" stop-color="#064232"/>
<stop offset="1" stop-color="#00F4FF"/>
</linearGradient>
<linearGradient id="paint9_linear_21_194" x1="32.1423" y1="353.767" x2="470.613" y2="353.767" gradientUnits="userSpaceOnUse">
<stop stop-color="#15FFC1"/>
<stop offset="0.5" stop-color="#064232"/>
<stop offset="1" stop-color="#00F4FF"/>
</linearGradient>
<linearGradient id="paint10_linear_21_194" x1="35.7025" y1="363.43" x2="472.023" y2="363.43" gradientUnits="userSpaceOnUse">
<stop stop-color="#15FFC1"/>
<stop offset="0.5" stop-color="#064232"/>
<stop offset="1" stop-color="#00F4FF"/>
</linearGradient>
<linearGradient id="paint11_linear_21_194" x1="39.2627" y1="373.092" x2="473.423" y2="373.092" gradientUnits="userSpaceOnUse">
<stop stop-color="#15FFC1"/>
<stop offset="0.5" stop-color="#064232"/>
<stop offset="1" stop-color="#00F4FF"/>
</linearGradient>
<linearGradient id="paint12_linear_21_194" x1="42.813" y1="382.766" x2="474.833" y2="382.766" gradientUnits="userSpaceOnUse">
<stop stop-color="#15FFC1"/>
<stop offset="0.5" stop-color="#064232"/>
<stop offset="1" stop-color="#00F4FF"/>
</linearGradient>
<linearGradient id="paint13_linear_21_194" x1="46.3633" y1="392.429" x2="476.243" y2="392.429" gradientUnits="userSpaceOnUse">
<stop stop-color="#15FFC1"/>
<stop offset="0.5" stop-color="#064232"/>
<stop offset="1" stop-color="#00F4FF"/>
</linearGradient>
<linearGradient id="paint14_linear_21_194" x1="49.9134" y1="402.103" x2="477.653" y2="402.103" gradientUnits="userSpaceOnUse">
<stop stop-color="#15FFC1"/>
<stop offset="0.5" stop-color="#064232"/>
<stop offset="1" stop-color="#00F4FF"/>
</linearGradient>
<linearGradient id="paint15_linear_21_194" x1="53.4537" y1="411.766" x2="479.063" y2="411.766" gradientUnits="userSpaceOnUse">
<stop stop-color="#15FFC1"/>
<stop offset="0.5" stop-color="#064232"/>
<stop offset="1" stop-color="#00F4FF"/>
</linearGradient>
<linearGradient id="paint16_linear_21_194" x1="57.0039" y1="421.44" x2="480.474" y2="421.44" gradientUnits="userSpaceOnUse">
<stop stop-color="#15FFC1"/>
<stop offset="0.5" stop-color="#064232"/>
<stop offset="1" stop-color="#00F4FF"/>
</linearGradient>
<linearGradient id="paint17_linear_21_194" x1="60.5443" y1="431.102" x2="481.884" y2="431.102" gradientUnits="userSpaceOnUse">
<stop stop-color="#15FFC1"/>
<stop offset="0.5" stop-color="#064232"/>
<stop offset="1" stop-color="#00F4FF"/>
</linearGradient>
<linearGradient id="paint18_linear_21_194" x1="64.0845" y1="440.776" x2="483.284" y2="440.776" gradientUnits="userSpaceOnUse">
<stop stop-color="#15FFC1"/>
<stop offset="0.5" stop-color="#064232"/>
<stop offset="1" stop-color="#00F4FF"/>
</linearGradient>
<linearGradient id="paint19_linear_21_194" x1="67.6247" y1="450.439" x2="484.694" y2="450.439" gradientUnits="userSpaceOnUse">
<stop stop-color="#15FFC1"/>
<stop offset="0.5" stop-color="#064232"/>
<stop offset="1" stop-color="#00F4FF"/>
</linearGradient>
<linearGradient id="paint20_linear_21_194" x1="71.165" y1="460.101" x2="486.104" y2="460.101" gradientUnits="userSpaceOnUse">
<stop stop-color="#15FFC1"/>
<stop offset="0.5" stop-color="#064232"/>
<stop offset="1" stop-color="#00F4FF"/>
</linearGradient>
<linearGradient id="paint21_linear_21_194" x1="74.7052" y1="469.776" x2="487.514" y2="469.776" gradientUnits="userSpaceOnUse">
<stop stop-color="#15FFC1"/>
<stop offset="0.5" stop-color="#064232"/>
<stop offset="1" stop-color="#00F4FF"/>
</linearGradient>
<linearGradient id="paint22_linear_21_194" x1="78.2355" y1="479.438" x2="488.924" y2="479.438" gradientUnits="userSpaceOnUse">
<stop stop-color="#15FFC1"/>
<stop offset="0.5" stop-color="#064232"/>
<stop offset="1" stop-color="#00F4FF"/>
</linearGradient>
<linearGradient id="paint23_linear_21_194" x1="81.7757" y1="489.112" x2="490.334" y2="489.112" gradientUnits="userSpaceOnUse">
<stop stop-color="#15FFC1"/>
<stop offset="0.5" stop-color="#064232"/>
<stop offset="1" stop-color="#00F4FF"/>
</linearGradient>
<linearGradient id="paint24_linear_21_194" x1="85.306" y1="498.775" x2="491.734" y2="498.775" gradientUnits="userSpaceOnUse">
<stop stop-color="#15FFC1"/>
<stop offset="0.5" stop-color="#064232"/>
<stop offset="1" stop-color="#00F4FF"/>
</linearGradient>
<linearGradient id="paint25_linear_21_194" x1="88.8362" y1="508.449" x2="493.144" y2="508.449" gradientUnits="userSpaceOnUse">
<stop stop-color="#15FFC1"/>
<stop offset="0.5" stop-color="#064232"/>
<stop offset="1" stop-color="#00F4FF"/>
</linearGradient>
<linearGradient id="paint26_linear_21_194" x1="92.3765" y1="518.112" x2="494.555" y2="518.112" gradientUnits="userSpaceOnUse">
<stop stop-color="#15FFC1"/>
<stop offset="0.5" stop-color="#064232"/>
<stop offset="1" stop-color="#00F4FF"/>
</linearGradient>
<linearGradient id="paint27_linear_21_194" x1="95.9067" y1="527.786" x2="495.965" y2="527.786" gradientUnits="userSpaceOnUse">
<stop stop-color="#15FFC1"/>
<stop offset="0.5" stop-color="#064232"/>
<stop offset="1" stop-color="#00F4FF"/>
</linearGradient>
<linearGradient id="paint28_linear_21_194" x1="99.4369" y1="537.448" x2="497.375" y2="537.448" gradientUnits="userSpaceOnUse">
<stop stop-color="#15FFC1"/>
<stop offset="0.5" stop-color="#064232"/>
<stop offset="1" stop-color="#00F4FF"/>
</linearGradient>
<linearGradient id="paint29_linear_21_194" x1="102.967" y1="547.111" x2="498.785" y2="547.111" gradientUnits="userSpaceOnUse">
<stop stop-color="#15FFC1"/>
<stop offset="0.5" stop-color="#064232"/>
<stop offset="1" stop-color="#00F4FF"/>
</linearGradient>
<linearGradient id="paint30_linear_21_194" x1="106.507" y1="556.785" x2="500.185" y2="556.785" gradientUnits="userSpaceOnUse">
<stop stop-color="#15FFC1"/>
<stop offset="0.5" stop-color="#064232"/>
<stop offset="1" stop-color="#00F4FF"/>
</linearGradient>
<linearGradient id="paint31_linear_21_194" x1="110.038" y1="566.447" x2="501.595" y2="566.447" gradientUnits="userSpaceOnUse">
<stop stop-color="#15FFC1"/>
<stop offset="0.5" stop-color="#064232"/>
<stop offset="1" stop-color="#00F4FF"/>
</linearGradient>
<linearGradient id="paint32_linear_21_194" x1="113.568" y1="576.122" x2="503.005" y2="576.122" gradientUnits="userSpaceOnUse">
<stop stop-color="#15FFC1"/>
<stop offset="0.5" stop-color="#064232"/>
<stop offset="1" stop-color="#00F4FF"/>
</linearGradient>
<linearGradient id="paint33_linear_21_194" x1="117.108" y1="585.784" x2="504.415" y2="585.784" gradientUnits="userSpaceOnUse">
<stop stop-color="#15FFC1"/>
<stop offset="0.5" stop-color="#064232"/>
<stop offset="1" stop-color="#00F4FF"/>
</linearGradient>
<linearGradient id="paint34_linear_21_194" x1="120.638" y1="595.458" x2="505.825" y2="595.458" gradientUnits="userSpaceOnUse">
<stop stop-color="#15FFC1"/>
<stop offset="0.5" stop-color="#064232"/>
<stop offset="1" stop-color="#00F4FF"/>
</linearGradient>
<linearGradient id="paint35_linear_21_194" x1="124.179" y1="605.121" x2="507.235" y2="605.121" gradientUnits="userSpaceOnUse">
<stop stop-color="#15FFC1"/>
<stop offset="0.5" stop-color="#064232"/>
<stop offset="1" stop-color="#00F4FF"/>
</linearGradient>
<linearGradient id="paint36_linear_21_194" x1="127.709" y1="614.783" x2="508.636" y2="614.783" gradientUnits="userSpaceOnUse">
<stop stop-color="#15FFC1"/>
<stop offset="0.5" stop-color="#064232"/>
<stop offset="1" stop-color="#00F4FF"/>
</linearGradient>
<linearGradient id="paint37_linear_21_194" x1="131.249" y1="624.457" x2="510.046" y2="624.457" gradientUnits="userSpaceOnUse">
<stop stop-color="#15FFC1"/>
<stop offset="0.5" stop-color="#064232"/>
<stop offset="1" stop-color="#00F4FF"/>
</linearGradient>
<linearGradient id="paint38_linear_21_194" x1="134.789" y1="634.12" x2="511.456" y2="634.12" gradientUnits="userSpaceOnUse">
<stop stop-color="#15FFC1"/>
<stop offset="0.5" stop-color="#064232"/>
<stop offset="1" stop-color="#00F4FF"/>
</linearGradient>
<linearGradient id="paint39_linear_21_194" x1="138.33" y1="643.794" x2="512.866" y2="643.794" gradientUnits="userSpaceOnUse">
<stop stop-color="#15FFC1"/>
<stop offset="0.5" stop-color="#064232"/>
<stop offset="1" stop-color="#00F4FF"/>
</linearGradient>
<linearGradient id="paint40_linear_21_194" x1="141.87" y1="653.457" x2="514.276" y2="653.457" gradientUnits="userSpaceOnUse">
<stop stop-color="#15FFC1"/>
<stop offset="0.5" stop-color="#064232"/>
<stop offset="1" stop-color="#00F4FF"/>
</linearGradient>
<linearGradient id="paint41_linear_21_194" x1="145.41" y1="663.131" x2="515.686" y2="663.131" gradientUnits="userSpaceOnUse">
<stop stop-color="#15FFC1"/>
<stop offset="0.5" stop-color="#064232"/>
<stop offset="1" stop-color="#00F4FF"/>
</linearGradient>
<linearGradient id="paint42_linear_21_194" x1="148.95" y1="672.793" x2="517.086" y2="672.793" gradientUnits="userSpaceOnUse">
<stop stop-color="#15FFC1"/>
<stop offset="0.5" stop-color="#064232"/>
<stop offset="1" stop-color="#00F4FF"/>
</linearGradient>
<linearGradient id="paint43_linear_21_194" x1="152.501" y1="682.468" x2="518.496" y2="682.468" gradientUnits="userSpaceOnUse">
<stop stop-color="#15FFC1"/>
<stop offset="0.5" stop-color="#064232"/>
<stop offset="1" stop-color="#00F4FF"/>
</linearGradient>
<linearGradient id="paint44_linear_21_194" x1="156.051" y1="692.13" x2="519.906" y2="692.13" gradientUnits="userSpaceOnUse">
<stop stop-color="#15FFC1"/>
<stop offset="0.5" stop-color="#064232"/>
<stop offset="1" stop-color="#00F4FF"/>
</linearGradient>
<linearGradient id="paint45_linear_21_194" x1="159.601" y1="701.793" x2="521.316" y2="701.793" gradientUnits="userSpaceOnUse">
<stop stop-color="#15FFC1"/>
<stop offset="0.5" stop-color="#064232"/>
<stop offset="1" stop-color="#00F4FF"/>
</linearGradient>
<linearGradient id="paint46_linear_21_194" x1="163.151" y1="711.467" x2="522.727" y2="711.467" gradientUnits="userSpaceOnUse">
<stop stop-color="#15FFC1"/>
<stop offset="0.5" stop-color="#064232"/>
<stop offset="1" stop-color="#00F4FF"/>
</linearGradient>
<linearGradient id="paint47_linear_21_194" x1="166.712" y1="721.129" x2="524.127" y2="721.129" gradientUnits="userSpaceOnUse">
<stop stop-color="#15FFC1"/>
<stop offset="0.5" stop-color="#064232"/>
<stop offset="1" stop-color="#00F4FF"/>
</linearGradient>
<linearGradient id="paint48_linear_21_194" x1="170.272" y1="730.803" x2="525.537" y2="730.803" gradientUnits="userSpaceOnUse">
<stop stop-color="#15FFC1"/>
<stop offset="0.5" stop-color="#064232"/>
<stop offset="1" stop-color="#00F4FF"/>
</linearGradient>
<linearGradient id="paint49_linear_21_194" x1="173.832" y1="740.466" x2="526.947" y2="740.466" gradientUnits="userSpaceOnUse">
<stop stop-color="#15FFC1"/>
<stop offset="0.5" stop-color="#064232"/>
<stop offset="1" stop-color="#00F4FF"/>
</linearGradient>
<linearGradient id="paint50_linear_21_194" x1="177.402" y1="750.14" x2="528.357" y2="750.14" gradientUnits="userSpaceOnUse">
<stop stop-color="#15FFC1"/>
<stop offset="0.5" stop-color="#064232"/>
<stop offset="1" stop-color="#00F4FF"/>
</linearGradient>
<linearGradient id="paint51_linear_21_194" x1="180.973" y1="759.803" x2="529.767" y2="759.803" gradientUnits="userSpaceOnUse">
<stop stop-color="#15FFC1"/>
<stop offset="0.5" stop-color="#064232"/>
<stop offset="1" stop-color="#00F4FF"/>
</linearGradient>
<linearGradient id="paint52_linear_21_194" x1="184.543" y1="769.465" x2="531.177" y2="769.465" gradientUnits="userSpaceOnUse">
<stop stop-color="#15FFC1"/>
<stop offset="0.5" stop-color="#064232"/>
<stop offset="1" stop-color="#00F4FF"/>
</linearGradient>
<linearGradient id="paint53_linear_21_194" x1="188.123" y1="779.139" x2="532.577" y2="779.139" gradientUnits="userSpaceOnUse">
<stop stop-color="#15FFC1"/>
<stop offset="0.5" stop-color="#064232"/>
<stop offset="1" stop-color="#00F4FF"/>
</linearGradient>
<linearGradient id="paint54_linear_21_194" x1="191.703" y1="788.802" x2="533.987" y2="788.802" gradientUnits="userSpaceOnUse">
<stop stop-color="#15FFC1"/>
<stop offset="0.5" stop-color="#064232"/>
<stop offset="1" stop-color="#00F4FF"/>
</linearGradient>
<linearGradient id="paint55_linear_21_194" x1="195.284" y1="798.476" x2="535.397" y2="798.476" gradientUnits="userSpaceOnUse">
<stop stop-color="#15FFC1"/>
<stop offset="0.5" stop-color="#064232"/>
<stop offset="1" stop-color="#00F4FF"/>
</linearGradient>
<linearGradient id="paint56_linear_21_194" x1="198.874" y1="808.138" x2="536.808" y2="808.138" gradientUnits="userSpaceOnUse">
<stop stop-color="#15FFC1"/>
<stop offset="0.5" stop-color="#064232"/>
<stop offset="1" stop-color="#00F4FF"/>
</linearGradient>
<linearGradient id="paint57_linear_21_194" x1="202.464" y1="817.801" x2="538.218" y2="817.801" gradientUnits="userSpaceOnUse">
<stop stop-color="#15FFC1"/>
<stop offset="0.5" stop-color="#064232"/>
<stop offset="1" stop-color="#00F4FF"/>
</linearGradient>
<linearGradient id="paint58_linear_21_194" x1="206.064" y1="827.475" x2="539.618" y2="827.475" gradientUnits="userSpaceOnUse">
<stop stop-color="#15FFC1"/>
<stop offset="0.5" stop-color="#064232"/>
<stop offset="1" stop-color="#00F4FF"/>
</linearGradient>
<linearGradient id="paint59_linear_21_194" x1="209.665" y1="837.138" x2="541.028" y2="837.138" gradientUnits="userSpaceOnUse">
<stop stop-color="#15FFC1"/>
<stop offset="0.5" stop-color="#064232"/>
<stop offset="1" stop-color="#00F4FF"/>
</linearGradient>
<linearGradient id="paint60_linear_21_194" x1="213.275" y1="846.812" x2="542.438" y2="846.812" gradientUnits="userSpaceOnUse">
<stop stop-color="#15FFC1"/>
<stop offset="0.5" stop-color="#064232"/>
<stop offset="1" stop-color="#00F4FF"/>
</linearGradient>
<linearGradient id="paint61_linear_21_194" x1="216.885" y1="856.474" x2="543.848" y2="856.474" gradientUnits="userSpaceOnUse">
<stop stop-color="#15FFC1"/>
<stop offset="0.5" stop-color="#064232"/>
<stop offset="1" stop-color="#00F4FF"/>
</linearGradient>
<linearGradient id="paint62_linear_21_194" x1="220.505" y1="866.148" x2="545.258" y2="866.148" gradientUnits="userSpaceOnUse">
<stop stop-color="#15FFC1"/>
<stop offset="0.5" stop-color="#064232"/>
<stop offset="1" stop-color="#00F4FF"/>
</linearGradient>
<linearGradient id="paint63_linear_21_194" x1="224.136" y1="875.811" x2="546.658" y2="875.811" gradientUnits="userSpaceOnUse">
<stop stop-color="#15FFC1"/>
<stop offset="0.5" stop-color="#064232"/>
<stop offset="1" stop-color="#00F4FF"/>
</linearGradient>
<linearGradient id="paint64_linear_21_194" x1="227.766" y1="885.474" x2="548.068" y2="885.474" gradientUnits="userSpaceOnUse">
<stop stop-color="#15FFC1"/>
<stop offset="0.5" stop-color="#064232"/>
<stop offset="1" stop-color="#00F4FF"/>
</linearGradient>
<linearGradient id="paint65_linear_21_194" x1="231.396" y1="895.148" x2="549.478" y2="895.148" gradientUnits="userSpaceOnUse">
<stop stop-color="#15FFC1"/>
<stop offset="0.5" stop-color="#064232"/>
<stop offset="1" stop-color="#00F4FF"/>
</linearGradient>
<linearGradient id="paint66_linear_21_194" x1="235.036" y1="904.81" x2="550.888" y2="904.81" gradientUnits="userSpaceOnUse">
<stop stop-color="#15FFC1"/>
<stop offset="0.5" stop-color="#064232"/>
<stop offset="1" stop-color="#00F4FF"/>
</linearGradient>
<linearGradient id="paint67_linear_21_194" x1="238.687" y1="914.484" x2="552.289" y2="914.484" gradientUnits="userSpaceOnUse">
<stop stop-color="#15FFC1"/>
<stop offset="0.5" stop-color="#064232"/>
<stop offset="1" stop-color="#00F4FF"/>
</linearGradient>
<linearGradient id="paint68_linear_21_194" x1="242.347" y1="924.147" x2="553.699" y2="924.147" gradientUnits="userSpaceOnUse">
<stop stop-color="#15FFC1"/>
<stop offset="0.5" stop-color="#064232"/>
<stop offset="1" stop-color="#00F4FF"/>
</linearGradient>
<linearGradient id="paint69_linear_21_194" x1="246.007" y1="933.821" x2="555.109" y2="933.821" gradientUnits="userSpaceOnUse">
<stop stop-color="#15FFC1"/>
<stop offset="0.5" stop-color="#064232"/>
<stop offset="1" stop-color="#00F4FF"/>
</linearGradient>
<linearGradient id="paint70_linear_21_194" x1="249.677" y1="943.483" x2="556.519" y2="943.483" gradientUnits="userSpaceOnUse">
<stop stop-color="#15FFC1"/>
<stop offset="0.5" stop-color="#064232"/>
<stop offset="1" stop-color="#00F4FF"/>
</linearGradient>
<linearGradient id="paint71_linear_21_194" x1="253.358" y1="953.146" x2="557.929" y2="953.146" gradientUnits="userSpaceOnUse">
<stop stop-color="#15FFC1"/>
<stop offset="0.5" stop-color="#064232"/>
<stop offset="1" stop-color="#00F4FF"/>
</linearGradient>
<linearGradient id="paint72_linear_21_194" x1="257.038" y1="962.82" x2="559.329" y2="962.82" gradientUnits="userSpaceOnUse">
<stop stop-color="#15FFC1"/>
<stop offset="0.5" stop-color="#064232"/>
<stop offset="1" stop-color="#00F4FF"/>
</linearGradient>
<linearGradient id="paint73_linear_21_194" x1="260.728" y1="972.483" x2="560.739" y2="972.483" gradientUnits="userSpaceOnUse">
<stop stop-color="#15FFC1"/>
<stop offset="0.5" stop-color="#064232"/>
<stop offset="1" stop-color="#00F4FF"/>
</linearGradient>
<linearGradient id="paint74_linear_21_194" x1="264.428" y1="982.157" x2="562.149" y2="982.157" gradientUnits="userSpaceOnUse">
<stop stop-color="#15FFC1"/>
<stop offset="0.5" stop-color="#064232"/>
<stop offset="1" stop-color="#00F4FF"/>
</linearGradient>
<linearGradient id="paint75_linear_21_194" x1="268.139" y1="991.819" x2="563.559" y2="991.819" gradientUnits="userSpaceOnUse">
<stop stop-color="#15FFC1"/>
<stop offset="0.5" stop-color="#064232"/>
<stop offset="1" stop-color="#00F4FF"/>
</linearGradient>
<linearGradient id="paint76_linear_21_194" x1="271.859" y1="1001.48" x2="564.96" y2="1001.48" gradientUnits="userSpaceOnUse">
<stop stop-color="#15FFC1"/>
<stop offset="0.5" stop-color="#064232"/>
<stop offset="1" stop-color="#00F4FF"/>
</linearGradient>
<linearGradient id="paint77_linear_21_194" x1="275.579" y1="1011.16" x2="566.37" y2="1011.16" gradientUnits="userSpaceOnUse">
<stop stop-color="#15FFC1"/>
<stop offset="0.5" stop-color="#064232"/>
<stop offset="1" stop-color="#00F4FF"/>
</linearGradient>
<linearGradient id="paint78_linear_21_194" x1="279.31" y1="1020.82" x2="567.78" y2="1020.82" gradientUnits="userSpaceOnUse">
<stop stop-color="#15FFC1"/>
<stop offset="0.5" stop-color="#064232"/>
<stop offset="1" stop-color="#00F4FF"/>
</linearGradient>
<linearGradient id="paint79_linear_21_194" x1="283.06" y1="1030.49" x2="569.19" y2="1030.49" gradientUnits="userSpaceOnUse">
<stop stop-color="#15FFC1"/>
<stop offset="0.5" stop-color="#064232"/>
<stop offset="1" stop-color="#00F4FF"/>
</linearGradient>
<linearGradient id="paint80_linear_21_194" x1="286.81" y1="1040.16" x2="570.6" y2="1040.16" gradientUnits="userSpaceOnUse">
<stop stop-color="#15FFC1"/>
<stop offset="0.5" stop-color="#064232"/>
<stop offset="1" stop-color="#00F4FF"/>
</linearGradient>
<linearGradient id="paint81_linear_21_194" x1="290.57" y1="1049.82" x2="572" y2="1049.82" gradientUnits="userSpaceOnUse">
<stop stop-color="#15FFC1"/>
<stop offset="0.5" stop-color="#064232"/>
<stop offset="1" stop-color="#00F4FF"/>
</linearGradient>
<clipPath id="clip0_21_194">
<rect width="572" height="1233" fill="white"/>
</clipPath>
</defs>
</svg>